<svg id="eF1BogxLPRy1" xmlns="http://www.w3.org/2000/svg" xmlns:xlink="http://www.w3.org/1999/xlink" viewBox="0 0 567 567" shape-rendering="geometricPrecision" text-rendering="geometricPrecision" style="background-color:transparent"><g transform="translate(111.107 90.282)"><g transform="translate(221.834 138.555)"><path d="M44.536,-71.928c0,0,0,88.608,0,88.608c0,2.176-1.158,4.187-3.039,5.28c0,0-86.034,49.968-86.034,49.968" paint-order="stroke fill markers" fill="none" fill-rule="evenodd" stroke="#171a32" stroke-miterlimit="10"/></g><g transform="translate(260.814 159.871)"><path d="M44.536,-71.929c0,0,0,88.608,0,88.608c0,2.176-1.158,4.187-3.039,5.28c0,0-86.034,49.97-86.034,49.97" paint-order="stroke fill markers" fill="none" fill-rule="evenodd" stroke="#171a32" stroke-miterlimit="10"/></g><g transform="translate(299.357 181.644)"><path d="M44.536,-71.928c0,0,0,88.608,0,88.608c0,2.176-1.157,4.187-3.039,5.28c0,0-86.033,49.968-86.033,49.968" paint-order="stroke fill markers" fill="none" fill-rule="evenodd" stroke="#171a32" stroke-miterlimit="10"/></g><g transform="translate(164.986 267.081)"><path d="M154.975,-7.254c0,0-170.008,98.154-170.008,98.154-.764.441-1.704.441-2.468,0c0,0-137.476-79.372-137.476-79.372-1.645-.95-1.645-3.325,0-4.274c0,0,170.008-98.154,170.008-98.154.763-.441,1.705-.441,2.468,0c0,0,137.476,79.371,137.476,79.371c1.646.95,1.646,3.325,0,4.275Z" fill="#161a33" stroke-width="0"/></g><g transform="translate(164.986 266.805)"><path d="M154.975,-7.254c0,0-170.008,98.154-170.008,98.154-.764.441-1.704.441-2.468,0c0,0-137.476-79.372-137.476-79.372-1.645-.95-1.645-3.325,0-4.274c0,0,170.008-98.154,170.008-98.154.763-.441,1.705-.441,2.468,0c0,0,137.476,79.371,137.476,79.371c1.646.95,1.646,3.325,0,4.275Z" fill="#161a33" stroke-width="0"/></g><g transform="translate(164.986 266.53)"><path d="M154.975,-7.254c0,0-170.008,98.154-170.008,98.154-.764.441-1.704.441-2.468,0c0,0-137.476-79.372-137.476-79.372-1.645-.95-1.645-3.324,0-4.274c0,0,170.008-98.154,170.008-98.154.763-.441,1.705-.441,2.468,0c0,0,137.476,79.372,137.476,79.372c1.646.949,1.646,3.324,0,4.274Z" fill="#161a33" stroke-width="0"/></g><g transform="translate(164.986 266.254)"><path d="M154.975,-7.254c0,0-170.008,98.154-170.008,98.154-.764.441-1.704.441-2.468,0c0,0-137.476-79.372-137.476-79.372-1.645-.949-1.645-3.324,0-4.274c0,0,170.008-98.154,170.008-98.154.763-.441,1.705-.441,2.468,0c0,0,137.476,79.372,137.476,79.372c1.646.949,1.646,3.324,0,4.274Z" fill="#151a33" stroke-width="0"/></g><g transform="translate(164.986 265.979)"><path d="M154.975,-7.254c0,0-170.008,98.154-170.008,98.154-.764.441-1.704.441-2.468,0c0,0-137.476-79.372-137.476-79.372-1.645-.949-1.645-3.324,0-4.274c0,0,170.008-98.154,170.008-98.154.763-.441,1.705-.441,2.468,0c0,0,137.476,79.372,137.476,79.372c1.646.95,1.646,3.324,0,4.274Z" fill="#151a33" stroke-width="0"/></g><g transform="translate(164.986 265.704)"><path d="M154.975,-7.255c0,0-170.008,98.155-170.008,98.155-.764.442-1.704.442-2.468,0c0,0-137.476-79.372-137.476-79.372-1.645-.949-1.645-3.324,0-4.274c0,0,170.008-98.154,170.008-98.154.763-.441,1.705-.441,2.468,0c0,0,137.476,79.372,137.476,79.372c1.646.95,1.646,3.323,0,4.273Z" fill="#151a33" stroke-width="0"/></g><g transform="translate(164.986 265.429)"><path d="M154.975,-7.255c0,0-170.008,98.154-170.008,98.154-.764.442-1.704.442-2.468,0c0,0-137.476-79.37-137.476-79.37-1.645-.95-1.645-3.326,0-4.276c0,0,170.008-98.153,170.008-98.153.763-.441,1.705-.441,2.468,0c0,0,137.476,79.371,137.476,79.371c1.646.95,1.646,3.325,0,4.274Z" fill="#151a34" stroke-width="0"/></g><g transform="translate(164.986 265.153)"><path d="M154.975,-7.254c0,0-170.008,98.154-170.008,98.154-.764.442-1.704.442-2.468,0c0,0-137.476-79.371-137.476-79.371-1.645-.95-1.645-3.325,0-4.275c0,0,170.008-98.154,170.008-98.154.763-.441,1.705-.441,2.468,0c0,0,137.476,79.372,137.476,79.372c1.646.95,1.646,3.325,0,4.274Z" fill="#151a34" stroke-width="0"/></g><g transform="translate(164.986 264.878)"><path d="M154.975,-7.254c0,0-170.008,98.154-170.008,98.154-.764.442-1.704.442-2.468,0c0,0-137.476-79.371-137.476-79.371-1.645-.95-1.645-3.325,0-4.275c0,0,170.008-98.154,170.008-98.154.763-.441,1.705-.441,2.468,0c0,0,137.476,79.371,137.476,79.371c1.646.95,1.646,3.325,0,4.275Z" fill="#141a34" stroke-width="0"/></g><g transform="translate(164.986 264.603)"><path d="M154.975,-7.254c0,0-170.008,98.154-170.008,98.154-.764.442-1.704.442-2.468,0c0,0-137.476-79.371-137.476-79.371-1.645-.95-1.645-3.326,0-4.275c0,0,170.008-98.154,170.008-98.154.763-.441,1.705-.441,2.468,0c0,0,137.476,79.371,137.476,79.371c1.646.95,1.646,3.325,0,4.275Z" fill="#141a34" stroke-width="0"/></g><g transform="translate(164.986 264.328)"><path d="M154.975,-7.254c0,0-170.008,98.154-170.008,98.154-.764.441-1.704.441-2.468,0c0,0-137.476-79.372-137.476-79.372-1.645-.95-1.645-3.325,0-4.274c0,0,170.008-98.154,170.008-98.154.763-.441,1.705-.441,2.468,0c0,0,137.476,79.371,137.476,79.371c1.646.95,1.646,3.325,0,4.275Z" fill="#141a34" stroke-width="0"/></g><g transform="translate(164.986 264.052)"><path d="M154.975,-7.254c0,0-170.008,98.154-170.008,98.154-.764.441-1.704.441-2.468,0c0,0-137.476-79.372-137.476-79.372-1.645-.95-1.645-3.325,0-4.274c0,0,170.008-98.154,170.008-98.154.763-.441,1.705-.441,2.468,0c0,0,137.476,79.371,137.476,79.371c1.646.95,1.646,3.325,0,4.275Z" fill="#141a34" stroke-width="0"/></g><g transform="translate(164.986 263.777)"><path d="M154.975,-7.254c0,0-170.008,98.154-170.008,98.154-.764.441-1.704.441-2.468,0c0,0-137.476-79.372-137.476-79.372-1.645-.95-1.645-3.324,0-4.274c0,0,170.008-98.154,170.008-98.154.763-.441,1.705-.441,2.468,0c0,0,137.476,79.372,137.476,79.372c1.646.949,1.646,3.324,0,4.274Z" fill="#141a34" stroke-width="0"/></g><g transform="translate(164.986 263.501)"><path d="M154.975,-7.254c0,0-170.008,98.154-170.008,98.154-.764.441-1.704.441-2.468,0c0,0-137.476-79.372-137.476-79.372-1.645-.95-1.645-3.324,0-4.274c0,0,170.008-98.154,170.008-98.154.763-.441,1.705-.441,2.468,0c0,0,137.476,79.372,137.476,79.372c1.646.949,1.646,3.324,0,4.274Z" fill="#141a34" stroke-width="0"/></g><g transform="translate(164.986 263.226)"><path d="M154.975,-7.254c0,0-170.008,98.154-170.008,98.154-.764.441-1.704.441-2.468,0c0,0-137.476-79.372-137.476-79.372-1.645-.949-1.645-3.324,0-4.274c0,0,170.008-98.154,170.008-98.154.763-.441,1.705-.441,2.468,0c0,0,137.476,79.372,137.476,79.372c1.646.949,1.646,3.324,0,4.274Z" fill="#131a34" stroke-width="0"/></g><g transform="translate(164.986 262.951)"><path d="M154.975,-7.254c0,0-170.008,98.154-170.008,98.154-.764.441-1.704.441-2.468,0c0,0-137.476-79.372-137.476-79.372-1.645-.949-1.645-3.324,0-4.274c0,0,170.008-98.154,170.008-98.154.763-.441,1.705-.441,2.468,0c0,0,137.476,79.372,137.476,79.372c1.646.95,1.646,3.324,0,4.274Z" fill="#131a34" stroke-width="0"/></g><g transform="translate(164.986 262.676)"><path d="M154.975,-7.255c0,0-170.008,98.154-170.008,98.154-.764.442-1.704.442-2.468,0c0,0-137.476-79.371-137.476-79.371-1.645-.95-1.645-3.324,0-4.274c0,0,170.008-98.154,170.008-98.154.763-.441,1.705-.441,2.468,0c0,0,137.476,79.371,137.476,79.371c1.646.95,1.646,3.325,0,4.274Z" fill="#131a35" stroke-width="0"/></g><g transform="translate(164.986 262.4)"><path d="M154.975,-7.255c0,0-170.008,98.155-170.008,98.155-.764.442-1.704.442-2.468,0c0,0-137.476-79.371-137.476-79.371-1.645-.95-1.645-3.325,0-4.275c0,0,170.008-98.154,170.008-98.154.763-.441,1.705-.441,2.468,0c0,0,137.476,79.372,137.476,79.372c1.646.95,1.646,3.324,0,4.273Z" fill="#131a35" stroke-width="0"/></g><g transform="translate(164.986 262.125)"><path d="M154.975,-7.255c0,0-170.008,98.155-170.008,98.155-.764.442-1.704.442-2.468,0c0,0-137.476-79.371-137.476-79.371-1.645-.95-1.645-3.325,0-4.275c0,0,170.008-98.154,170.008-98.154.763-.441,1.705-.441,2.468,0c0,0,137.476,79.372,137.476,79.372c1.646.95,1.646,3.324,0,4.273Z" fill="#131a35" stroke-width="0"/></g><g transform="translate(164.986 261.85)"><path d="M154.975,-7.254c0,0-170.008,98.153-170.008,98.153-.764.442-1.704.442-2.468,0c0,0-137.476-79.37-137.476-79.37-1.645-.95-1.645-3.326,0-4.276c0,0,170.008-98.153,170.008-98.153.763-.441,1.705-.441,2.468,0c0,0,137.476,79.371,137.476,79.371c1.646.95,1.646,3.325,0,4.275Z" fill="#121a35" stroke-width="0"/></g><g transform="translate(164.986 261.575)"><path d="M154.975,-7.254c0,0-170.008,98.153-170.008,98.153-.764.442-1.704.442-2.468,0c0,0-137.476-79.371-137.476-79.371-1.645-.95-1.645-3.325,0-4.274c0,0,170.008-98.155,170.008-98.155.763-.44,1.705-.44,2.468,0c0,0,137.476,79.372,137.476,79.372c1.646.95,1.646,3.325,0,4.275Z" fill="#121a35" stroke-width="0"/></g><g transform="translate(164.986 261.299)"><path d="M154.975,-7.254c0,0-170.008,98.154-170.008,98.154-.764.441-1.704.441-2.468,0c0,0-137.476-79.372-137.476-79.372-1.645-.95-1.645-3.325,0-4.274c0,0,170.008-98.154,170.008-98.154.763-.441,1.705-.441,2.468,0c0,0,137.476,79.371,137.476,79.371c1.646.95,1.646,3.325,0,4.275Z" fill="#fff" stroke-width="0"/></g><g transform="translate(164.986 261.299)"><path d="M154.975,-7.254c0,0-170.008,98.154-170.008,98.154-.764.441-1.704.441-2.468,0c0,0-137.476-79.372-137.476-79.372-1.645-.95-1.645-3.325,0-4.274c0,0,170.008-98.154,170.008-98.154.763-.441,1.705-.441,2.468,0c0,0,137.476,79.371,137.476,79.371c1.646.95,1.646,3.325,0,4.275Z" paint-order="stroke fill markers" fill="none" fill-rule="evenodd" stroke="#171a32" stroke-miterlimit="10"/></g><g transform="translate(89.913 137.638)"><path d="M86.115,31.456c0,0-168.874,97.749-168.874,97.749-2.067,1.197-4.654-.295-4.654-2.684c0,0,0-155.483,0-155.483c0-.929.494-1.788,1.298-2.253c0,0,169.622-98.182,169.622-98.182c1.735-1.005,3.906.248,3.906,2.253c0,0,0,156.347,0,156.347c0,.929-.494,1.788-1.298,2.253Z" fill="#171a32" stroke-width="0"/></g><g transform="translate(89.913 137.638)"><path d="M86.115,31.456c0,0-168.874,97.749-168.874,97.749-2.067,1.197-4.654-.295-4.654-2.684c0,0,0-155.483,0-155.483c0-.929.494-1.788,1.298-2.253c0,0,169.622-98.182,169.622-98.182c1.735-1.005,3.906.248,3.906,2.253c0,0,0,156.347,0,156.347c0,.929-.494,1.788-1.298,2.253Z" paint-order="stroke fill markers" fill="none" fill-rule="evenodd" stroke="#171a32" stroke-miterlimit="10"/></g><g transform="translate(90.093 137.719)"><path d="M-87.414,-28.967c0-.929.495-1.788,1.299-2.253c0,0,169.621-98.182,169.621-98.182c1.736-1.005,3.908.247,3.908,2.253c0,0,0,156.347,0,156.347c0,.929-.495,1.788-1.3,2.253c0,0-168.908,97.77-168.908,97.77-2.052,1.187-4.62-.293-4.62-2.664c0,0,0-155.524,0-155.524Z" fill="#171a32" stroke-width="0"/></g><g transform="translate(90.093 137.719)"><path d="M-87.414,-28.967c0-.929.495-1.788,1.299-2.253c0,0,169.621-98.182,169.621-98.182c1.736-1.005,3.908.247,3.908,2.253c0,0,0,156.347,0,156.347c0,.929-.495,1.788-1.3,2.253c0,0-168.908,97.77-168.908,97.77-2.052,1.187-4.62-.293-4.62-2.664c0,0,0-155.524,0-155.524Z" paint-order="stroke fill markers" fill="none" fill-rule="evenodd" stroke="#171a32" stroke-miterlimit="10"/></g><g transform="translate(90.273 137.801)"><path d="M-87.414,-28.973c0-.929.495-1.788,1.299-2.253c0,0,169.621-98.182,169.621-98.182c1.736-1.005,3.908.247,3.908,2.253c0,0,0,156.347,0,156.347c0,.929-.495,1.788-1.299,2.253c0,0-168.945,97.79-168.945,97.79-2.036,1.179-4.584-.29-4.584-2.643c0,0,0-155.565,0-155.565Z" fill="#171a32" stroke-width="0"/></g><g transform="translate(90.273 137.801)"><path d="M-87.414,-28.973c0-.929.495-1.788,1.299-2.253c0,0,169.621-98.182,169.621-98.182c1.736-1.005,3.908.247,3.908,2.253c0,0,0,156.347,0,156.347c0,.929-.495,1.788-1.299,2.253c0,0-168.945,97.79-168.945,97.79-2.036,1.179-4.584-.29-4.584-2.643c0,0,0-155.565,0-155.565Z" paint-order="stroke fill markers" fill="none" fill-rule="evenodd" stroke="#171a32" stroke-miterlimit="10"/></g><g transform="translate(90.454 137.882)"><path d="M-87.414,-28.979c0-.929.495-1.788,1.299-2.253c0,0,169.621-98.182,169.621-98.182c1.735-1.005,3.908.247,3.908,2.253c0,0,0,156.347,0,156.347c0,.929-.495,1.788-1.3,2.253c0,0-168.98,97.811-168.98,97.811-2.02,1.169-4.548-.288-4.548-2.623c0,0,0-155.606,0-155.606Z" fill="#161a32" stroke-width="0"/></g><g transform="translate(90.454 137.882)"><path d="M-87.414,-28.979c0-.929.495-1.788,1.299-2.253c0,0,169.621-98.182,169.621-98.182c1.735-1.005,3.908.247,3.908,2.253c0,0,0,156.347,0,156.347c0,.929-.495,1.788-1.3,2.253c0,0-168.98,97.811-168.98,97.811-2.02,1.169-4.548-.288-4.548-2.623c0,0,0-155.606,0-155.606Z" paint-order="stroke fill markers" fill="none" fill-rule="evenodd" stroke="#171a32" stroke-miterlimit="10"/></g><g transform="translate(90.634 137.964)"><path d="M-87.414,-28.985c0-.929.495-1.788,1.299-2.253c0,0,169.621-98.182,169.621-98.182c1.736-1.005,3.908.247,3.908,2.253c0,0,0,156.347,0,156.347c0,.929-.495,1.788-1.299,2.253c0,0-169.017,97.832-169.017,97.832-2.004,1.16-4.512-.286-4.512-2.603c0,0,0-155.647,0-155.647Z" fill="#161a33" stroke-width="0"/></g><g transform="translate(90.634 137.964)"><path d="M-87.414,-28.985c0-.929.495-1.788,1.299-2.253c0,0,169.621-98.182,169.621-98.182c1.736-1.005,3.908.247,3.908,2.253c0,0,0,156.347,0,156.347c0,.929-.495,1.788-1.299,2.253c0,0-169.017,97.832-169.017,97.832-2.004,1.16-4.512-.286-4.512-2.603c0,0,0-155.647,0-155.647Z" paint-order="stroke fill markers" fill="none" fill-rule="evenodd" stroke="#171a32" stroke-miterlimit="10"/></g><g transform="translate(90.813 138.045)"><path d="M-87.414,-28.99c0-.929.495-1.788,1.299-2.253c0,0,169.621-98.182,169.621-98.182c1.736-1.005,3.908.247,3.908,2.253c0,0,0,156.347,0,156.347c0,.929-.495,1.788-1.299,2.253c0,0-169.052,97.852-169.052,97.852-1.988,1.151-4.477-.284-4.477-2.581c0,0,0-155.689,0-155.689Z" fill="#161a33" stroke-width="0"/></g><g transform="translate(90.813 138.045)"><path d="M-87.414,-28.99c0-.929.495-1.788,1.299-2.253c0,0,169.621-98.182,169.621-98.182c1.736-1.005,3.908.247,3.908,2.253c0,0,0,156.347,0,156.347c0,.929-.495,1.788-1.299,2.253c0,0-169.052,97.852-169.052,97.852-1.988,1.151-4.477-.284-4.477-2.581c0,0,0-155.689,0-155.689Z" paint-order="stroke fill markers" fill="none" fill-rule="evenodd" stroke="#171a32" stroke-miterlimit="10"/></g><g transform="translate(90.994 138.127)"><path d="M-87.414,-28.997c0-.929.495-1.787,1.299-2.252c0,0,169.621-98.183,169.621-98.183c1.736-1.005,3.908.248,3.908,2.254c0,0,0,156.347,0,156.347c0,.929-.495,1.787-1.3,2.252c0,0-169.087,97.874-169.087,97.874-1.972,1.142-4.441-.283-4.441-2.563c0,0,0-155.729,0-155.729Z" fill="#161a33" stroke-width="0"/></g><g transform="translate(90.994 138.127)"><path d="M-87.414,-28.997c0-.929.495-1.787,1.299-2.252c0,0,169.621-98.183,169.621-98.183c1.736-1.005,3.908.248,3.908,2.254c0,0,0,156.347,0,156.347c0,.929-.495,1.787-1.3,2.252c0,0-169.087,97.874-169.087,97.874-1.972,1.142-4.441-.283-4.441-2.563c0,0,0-155.729,0-155.729Z" paint-order="stroke fill markers" fill="none" fill-rule="evenodd" stroke="#171a32" stroke-miterlimit="10"/></g><g transform="translate(91.174 138.208)"><path d="M-87.414,-29.002c0-.929.495-1.788,1.299-2.253c0,0,169.621-98.182,169.621-98.182c1.736-1.005,3.908.247,3.908,2.253c0,0,0,156.347,0,156.347c0,.929-.495,1.788-1.299,2.253c0,0-169.123,97.893-169.123,97.893-1.957,1.133-4.406-.279-4.406-2.54c0,0,0-155.771,0-155.771Z" fill="#151a33" stroke-width="0"/></g><g transform="translate(91.174 138.208)"><path d="M-87.414,-29.002c0-.929.495-1.788,1.299-2.253c0,0,169.621-98.182,169.621-98.182c1.736-1.005,3.908.247,3.908,2.253c0,0,0,156.347,0,156.347c0,.929-.495,1.788-1.299,2.253c0,0-169.123,97.893-169.123,97.893-1.957,1.133-4.406-.279-4.406-2.54c0,0,0-155.771,0-155.771Z" paint-order="stroke fill markers" fill="none" fill-rule="evenodd" stroke="#171a32" stroke-miterlimit="10"/></g><g transform="translate(91.354 138.289)"><path d="M-87.413,-29.007c0-.929.494-1.788,1.298-2.253c0,0,169.622-98.182,169.622-98.182c1.735-1.005,3.906.247,3.906,2.253c0,0,0,156.347,0,156.347c0,.929-.494,1.788-1.298,2.253c0,0-169.159,97.913-169.159,97.913-1.941,1.123-4.369-.276-4.369-2.519c0,0,0-155.812,0-155.812Z" fill="#151a33" stroke-width="0"/></g><g transform="translate(91.354 138.289)"><path d="M-87.413,-29.007c0-.929.494-1.788,1.298-2.253c0,0,169.622-98.182,169.622-98.182c1.735-1.005,3.906.247,3.906,2.253c0,0,0,156.347,0,156.347c0,.929-.494,1.788-1.298,2.253c0,0-169.159,97.913-169.159,97.913-1.941,1.123-4.369-.276-4.369-2.519c0,0,0-155.812,0-155.812Z" paint-order="stroke fill markers" fill="none" fill-rule="evenodd" stroke="#171a32" stroke-miterlimit="10"/></g><g transform="translate(91.534 138.371)"><path d="M-87.414,-29.014c0-.929.495-1.787,1.299-2.252c0,0,169.622-98.183,169.622-98.183c1.735-1.005,3.907.248,3.907,2.254c0,0,0,156.347,0,156.347c0,.929-.495,1.787-1.3,2.252c0,0-169.193,97.934-169.193,97.934-1.925,1.115-4.335-.274-4.335-2.499c0,0,0-155.853,0-155.853Z" fill="#151a33" stroke-width="0"/></g><g transform="translate(91.534 138.371)"><path d="M-87.414,-29.014c0-.929.495-1.787,1.299-2.252c0,0,169.622-98.183,169.622-98.183c1.735-1.005,3.907.248,3.907,2.254c0,0,0,156.347,0,156.347c0,.929-.495,1.787-1.3,2.252c0,0-169.193,97.934-169.193,97.934-1.925,1.115-4.335-.274-4.335-2.499c0,0,0-155.853,0-155.853Z" paint-order="stroke fill markers" fill="none" fill-rule="evenodd" stroke="#171a32" stroke-miterlimit="10"/></g><g transform="translate(91.714 138.452)"><path d="M-87.414,-29.019c0-.929.495-1.788,1.299-2.253c0,0,169.621-98.182,169.621-98.182c1.736-1.005,3.908.247,3.908,2.253c0,0,0,156.347,0,156.347c0,.929-.495,1.788-1.299,2.253c0,0-169.23,97.955-169.23,97.955-1.909,1.106-4.299-.272-4.299-2.478c0,0,0-155.895,0-155.895Z" fill="#151a33" stroke-width="0"/></g><g transform="translate(91.714 138.452)"><path d="M-87.414,-29.019c0-.929.495-1.788,1.299-2.253c0,0,169.621-98.182,169.621-98.182c1.736-1.005,3.908.247,3.908,2.253c0,0,0,156.347,0,156.347c0,.929-.495,1.788-1.299,2.253c0,0-169.23,97.955-169.23,97.955-1.909,1.106-4.299-.272-4.299-2.478c0,0,0-155.895,0-155.895Z" paint-order="stroke fill markers" fill="none" fill-rule="evenodd" stroke="#171a32" stroke-miterlimit="10"/></g><g transform="translate(91.894 138.534)"><path d="M-87.414,-29.025c0-.929.495-1.788,1.299-2.253c0,0,169.621-98.182,169.621-98.182c1.735-1.005,3.908.247,3.908,2.253c0,0,0,156.347,0,156.347c0,.929-.495,1.788-1.3,2.253c0,0-169.265,97.976-169.265,97.976-1.893,1.096-4.263-.27-4.263-2.459c0,0,0-155.935,0-155.935Z" fill="#141a34" stroke-width="0"/></g><g transform="translate(91.894 138.534)"><path d="M-87.414,-29.025c0-.929.495-1.788,1.299-2.253c0,0,169.621-98.182,169.621-98.182c1.735-1.005,3.908.247,3.908,2.253c0,0,0,156.347,0,156.347c0,.929-.495,1.788-1.3,2.253c0,0-169.265,97.976-169.265,97.976-1.893,1.096-4.263-.27-4.263-2.459c0,0,0-155.935,0-155.935Z" paint-order="stroke fill markers" fill="none" fill-rule="evenodd" stroke="#171a32" stroke-miterlimit="10"/></g><g transform="translate(92.074 138.615)"><path d="M-87.414,-29.031c0-.929.495-1.787,1.299-2.252c0,0,169.621-98.182,169.621-98.182c1.736-1.005,3.908.247,3.908,2.253c0,0,0,156.347,0,156.347c0,.929-.495,1.787-1.299,2.252c0,0-169.301,97.996-169.301,97.996-1.878,1.087-4.228-.268-4.228-2.437c0,0,0-155.977,0-155.977Z" fill="#141a34" stroke-width="0"/></g><g transform="translate(92.074 138.615)"><path d="M-87.414,-29.031c0-.929.495-1.787,1.299-2.252c0,0,169.621-98.182,169.621-98.182c1.736-1.005,3.908.247,3.908,2.253c0,0,0,156.347,0,156.347c0,.929-.495,1.787-1.299,2.252c0,0-169.301,97.996-169.301,97.996-1.878,1.087-4.228-.268-4.228-2.437c0,0,0-155.977,0-155.977Z" paint-order="stroke fill markers" fill="none" fill-rule="evenodd" stroke="#171a32" stroke-miterlimit="10"/></g><g transform="translate(92.254 138.697)"><path d="M-87.414,-29.037c0-.929.495-1.788,1.299-2.253c0,0,169.621-98.182,169.621-98.182c1.736-1.005,3.908.248,3.908,2.254c0,0,0,156.346,0,156.346c0,.929-.495,1.788-1.299,2.253c0,0-169.337,98.017-169.337,98.017-1.861,1.078-4.192-.266-4.192-2.417c0,0,0-156.018,0-156.018Z" fill="#141a34" stroke-width="0"/></g><g transform="translate(92.254 138.697)"><path d="M-87.414,-29.037c0-.929.495-1.788,1.299-2.253c0,0,169.621-98.182,169.621-98.182c1.736-1.005,3.908.248,3.908,2.254c0,0,0,156.346,0,156.346c0,.929-.495,1.788-1.299,2.253c0,0-169.337,98.017-169.337,98.017-1.861,1.078-4.192-.266-4.192-2.417c0,0,0-156.018,0-156.018Z" paint-order="stroke fill markers" fill="none" fill-rule="evenodd" stroke="#171a32" stroke-miterlimit="10"/></g><g transform="translate(92.434 138.778)"><path d="M-87.414,-29.042c0-.929.495-1.788,1.299-2.253c0,0,169.621-98.182,169.621-98.182c1.736-1.005,3.908.247,3.908,2.253c0,0,0,156.347,0,156.347c0,.929-.495,1.788-1.3,2.253c0,0-169.371,98.037-169.371,98.037-1.846,1.069-4.157-.263-4.157-2.396c0,0,0-156.059,0-156.059Z" fill="#141a34" stroke-width="0"/></g><g transform="translate(92.434 138.778)"><path d="M-87.414,-29.042c0-.929.495-1.788,1.299-2.253c0,0,169.621-98.182,169.621-98.182c1.736-1.005,3.908.247,3.908,2.253c0,0,0,156.347,0,156.347c0,.929-.495,1.788-1.3,2.253c0,0-169.371,98.037-169.371,98.037-1.846,1.069-4.157-.263-4.157-2.396c0,0,0-156.059,0-156.059Z" paint-order="stroke fill markers" fill="none" fill-rule="evenodd" stroke="#171a32" stroke-miterlimit="10"/></g><g transform="translate(92.614 138.859)"><path d="M-87.414,-29.048c0-.929.495-1.788,1.299-2.253c0,0,169.621-98.182,169.621-98.182c1.736-1.005,3.908.247,3.908,2.253c0,0,0,156.347,0,156.347c0,.929-.495,1.788-1.299,2.253c0,0-169.408,98.058-169.408,98.058-1.83,1.06-4.121-.262-4.121-2.376c0,0,0-156.1,0-156.1Z" fill="#131a34" stroke-width="0"/></g><g transform="translate(92.614 138.859)"><path d="M-87.414,-29.048c0-.929.495-1.788,1.299-2.253c0,0,169.621-98.182,169.621-98.182c1.736-1.005,3.908.247,3.908,2.253c0,0,0,156.347,0,156.347c0,.929-.495,1.788-1.299,2.253c0,0-169.408,98.058-169.408,98.058-1.83,1.06-4.121-.262-4.121-2.376c0,0,0-156.1,0-156.1Z" paint-order="stroke fill markers" fill="none" fill-rule="evenodd" stroke="#171a32" stroke-miterlimit="10"/></g><g transform="translate(92.794 138.941)"><path d="M-87.414,-29.053c0-.929.495-1.788,1.299-2.253c0,0,169.621-98.182,169.621-98.182c1.735-1.005,3.908.247,3.908,2.253c0,0,0,156.347,0,156.347c0,.929-.495,1.788-1.3,2.253c0,0-169.443,98.079-169.443,98.079-1.814,1.05-4.085-.26-4.085-2.356c0,0,0-156.141,0-156.141Z" fill="#131a34" stroke-width="0"/></g><g transform="translate(92.794 138.941)"><path d="M-87.414,-29.053c0-.929.495-1.788,1.299-2.253c0,0,169.621-98.182,169.621-98.182c1.735-1.005,3.908.247,3.908,2.253c0,0,0,156.347,0,156.347c0,.929-.495,1.788-1.3,2.253c0,0-169.443,98.079-169.443,98.079-1.814,1.05-4.085-.26-4.085-2.356c0,0,0-156.141,0-156.141Z" paint-order="stroke fill markers" fill="none" fill-rule="evenodd" stroke="#171a32" stroke-miterlimit="10"/></g><g transform="translate(92.975 139.022)"><path d="M-87.414,-29.059c0-.929.495-1.788,1.299-2.253c0,0,169.621-98.182,169.621-98.182c1.736-1.005,3.908.247,3.908,2.253c0,0,0,156.347,0,156.347c0,.929-.495,1.788-1.299,2.253c0,0-169.479,98.099-169.479,98.099-1.799,1.041-4.05-.257-4.05-2.335c0,0,0-156.182,0-156.182Z" fill="#131a34" stroke-width="0"/></g><g transform="translate(92.975 139.022)"><path d="M-87.414,-29.059c0-.929.495-1.788,1.299-2.253c0,0,169.621-98.182,169.621-98.182c1.736-1.005,3.908.247,3.908,2.253c0,0,0,156.347,0,156.347c0,.929-.495,1.788-1.299,2.253c0,0-169.479,98.099-169.479,98.099-1.799,1.041-4.05-.257-4.05-2.335c0,0,0-156.182,0-156.182Z" paint-order="stroke fill markers" fill="none" fill-rule="evenodd" stroke="#171a32" stroke-miterlimit="10"/></g><g transform="translate(93.154 139.104)"><path d="M-87.414,-29.066c0-.929.495-1.788,1.299-2.253c0,0,169.621-98.182,169.621-98.182c1.736-1.004,3.908.248,3.908,2.253c0,0,0,156.347,0,156.347c0,.929-.495,1.788-1.299,2.253c0,0-169.514,98.121-169.514,98.121-1.784,1.032-4.015-.255-4.015-2.315c0,0,0-156.224,0-156.224Z" fill="#131a35" stroke-width="0"/></g><g transform="translate(93.154 139.104)"><path d="M-87.414,-29.066c0-.929.495-1.788,1.299-2.253c0,0,169.621-98.182,169.621-98.182c1.736-1.004,3.908.248,3.908,2.253c0,0,0,156.347,0,156.347c0,.929-.495,1.788-1.299,2.253c0,0-169.514,98.121-169.514,98.121-1.784,1.032-4.015-.255-4.015-2.315c0,0,0-156.224,0-156.224Z" paint-order="stroke fill markers" fill="none" fill-rule="evenodd" stroke="#171a32" stroke-miterlimit="10"/></g><g transform="translate(93.334 139.185)"><path d="M-87.414,-29.071c0-.929.495-1.788,1.299-2.253c0,0,169.621-98.182,169.621-98.182c1.736-1.004,3.908.248,3.908,2.253c0,0,0,156.347,0,156.347c0,.929-.495,1.788-1.3,2.253c0,0-169.549,98.141-169.549,98.141-1.768,1.023-3.979-.253-3.979-2.295c0,0,0-156.264,0-156.264Z" fill="#121a35" stroke-width="0"/></g><g transform="translate(93.334 139.185)"><path d="M-87.414,-29.071c0-.929.495-1.788,1.299-2.253c0,0,169.621-98.182,169.621-98.182c1.736-1.004,3.908.248,3.908,2.253c0,0,0,156.347,0,156.347c0,.929-.495,1.788-1.3,2.253c0,0-169.549,98.141-169.549,98.141-1.768,1.023-3.979-.253-3.979-2.295c0,0,0-156.264,0-156.264Z" paint-order="stroke fill markers" fill="none" fill-rule="evenodd" stroke="#171a32" stroke-miterlimit="10"/></g><g transform="translate(93.515 139.266)"><path d="M-87.414,-29.077c0-.929.495-1.788,1.299-2.253c0,0,169.621-98.182,169.621-98.182c1.736-1.004,3.908.248,3.908,2.253c0,0,0,156.347,0,156.347c0,.929-.495,1.788-1.299,2.253c0,0-169.586,98.162-169.586,98.162-1.751,1.013-3.943-.25-3.943-2.274c0,0,0-156.306,0-156.306Z" fill="#121a35" stroke-width="0"/></g><g transform="translate(93.515 139.266)"><path d="M-87.414,-29.077c0-.929.495-1.788,1.299-2.253c0,0,169.621-98.182,169.621-98.182c1.736-1.004,3.908.248,3.908,2.253c0,0,0,156.347,0,156.347c0,.929-.495,1.788-1.299,2.253c0,0-169.586,98.162-169.586,98.162-1.751,1.013-3.943-.25-3.943-2.274c0,0,0-156.306,0-156.306Z" paint-order="stroke fill markers" fill="none" fill-rule="evenodd" stroke="#171a32" stroke-miterlimit="10"/></g><g transform="translate(93.695 139.348)"><path d="M86.115,31.336c0,0-169.622,98.182-169.622,98.182-1.735,1.004-3.906-.248-3.906-2.254c0,0,0-156.346,0-156.346c0-.929.494-1.788,1.298-2.253c0,0,169.622-98.182,169.622-98.182c1.735-1.005,3.906.248,3.906,2.253c0,0,0,156.347,0,156.347c0,.929-.494,1.787-1.298,2.253Z" fill="#121a35" stroke-width="0"/></g><g transform="translate(93.695 139.348)"><path d="M86.115,31.336c0,0-169.622,98.182-169.622,98.182-1.735,1.004-3.906-.248-3.906-2.254c0,0,0-156.346,0-156.346c0-.929.494-1.788,1.298-2.253c0,0,169.622-98.182,169.622-98.182c1.735-1.005,3.906.248,3.906,2.253c0,0,0,156.347,0,156.347c0,.929-.494,1.787-1.298,2.253Z" paint-order="stroke fill markers" fill="none" fill-rule="evenodd" stroke="#171a32" stroke-miterlimit="10"/></g><g transform="translate(93.695 139.348)"><path d="M86.115,31.336c0,0-169.622,98.182-169.622,98.182-1.735,1.004-3.906-.248-3.906-2.254c0,0,0-156.346,0-156.346c0-.929.494-1.788,1.298-2.253c0,0,169.622-98.182,169.622-98.182c1.735-1.005,3.906.248,3.906,2.253c0,0,0,156.347,0,156.347c0,.929-.494,1.787-1.298,2.253Z" fill="#fff" stroke-width="0"/></g><g transform="translate(93.695 139.348)"><path d="M86.115,31.336c0,0-169.622,98.182-169.622,98.182-1.735,1.004-3.906-.248-3.906-2.254c0,0,0-156.346,0-156.346c0-.929.494-1.788,1.298-2.253c0,0,169.622-98.182,169.622-98.182c1.735-1.005,3.906.248,3.906,2.253c0,0,0,156.347,0,156.347c0,.929-.494,1.787-1.298,2.253Z" paint-order="stroke fill markers" fill="none" fill-rule="evenodd" stroke="#171a32" stroke-miterlimit="10"/></g><g transform="translate(94.102 74.013)"><path d="M-87.006,49.666c0,0,174.012-99.332,174.012-99.332" fill="#fff" stroke-width="0"/></g><g transform="translate(94.102 74.013)"><path d="M-87.006,49.666c0,0,174.012-99.332,174.012-99.332" paint-order="stroke fill markers" fill="none" fill-rule="evenodd" stroke="#171a32" stroke-linecap="round" stroke-miterlimit="10"/></g><g transform="translate(56.417 171.77)"><path d="M30.689,31.289c0,0-61.378,34.839-61.378,34.839-.941.534-1.704.239-1.704-.658c0,0,0-94.168,0-94.168c0-.897.763-2.056,1.704-2.591c0,0,61.378-34.839,61.378-34.839.941-.534,1.704-.239,1.704.658c0,0,0,94.168,0,94.168c0,.898-.763,2.057-1.704,2.591Z" fill="#b9d7f1" stroke-width="0"/></g><g transform="translate(64.486 176.754)"><path d="M30.689,31.289c0,0-61.378,34.838-61.378,34.838-.941.534-1.704.24-1.704-.656c0,0,0-94.169,0-94.169c0-.897.763-2.057,1.704-2.591c0,0,61.378-34.838,61.378-34.838.941-.534,1.704-.24,1.704.657c0,0,0,94.168,0,94.168c0,.897-.763,2.057-1.704,2.591Z" fill="#fff" stroke-width="0"/></g><g transform="translate(64.486 176.754)"><path d="M30.689,31.289c0,0-61.378,34.838-61.378,34.838-.941.534-1.704.24-1.704-.656c0,0,0-94.169,0-94.169c0-.897.763-2.057,1.704-2.591c0,0,61.378-34.838,61.378-34.838.941-.534,1.704-.24,1.704.657c0,0,0,94.168,0,94.168c0,.897-.763,2.057-1.704,2.591Z" paint-order="stroke fill markers" fill="none" fill-rule="evenodd" stroke="#171a32" stroke-miterlimit="10"/></g><g transform="translate(65.496 157.069)"><path d="M22.983,-13.276c-6.004,3.469-5.882,3.398-45.966,26.552" paint-order="stroke fill markers" fill="none" fill-rule="evenodd" stroke="#171a32" stroke-linecap="round" stroke-miterlimit="10"/></g><g transform="translate(65.496 167.459)"><path d="M22.983,-13.276c-6.004,3.468-5.882,3.397-45.966,26.552" paint-order="stroke fill markers" fill="none" fill-rule="evenodd" stroke="#171a32" stroke-linecap="round" stroke-miterlimit="10"/></g><g transform="translate(65.496 178.434)"><path d="M22.983,-13.276c-6.004,3.469-5.882,3.398-45.966,26.552" paint-order="stroke fill markers" fill="none" fill-rule="evenodd" stroke="#171a32" stroke-linecap="round" stroke-miterlimit="10"/></g><g transform="translate(65.496 189.409)"><path d="M22.983,-13.276c-6.004,3.469-5.882,3.398-45.966,26.552" paint-order="stroke fill markers" fill="none" fill-rule="evenodd" stroke="#171a32" stroke-linecap="round" stroke-miterlimit="10"/></g><g transform="translate(65.496 200.384)"><path d="M22.983,-13.277c-6.004,3.469-5.882,3.399-45.966,26.554" paint-order="stroke fill markers" fill="none" fill-rule="evenodd" stroke="#171a32" stroke-linecap="round" stroke-miterlimit="10"/></g><g transform="translate(122.762 112.662)"><path d="M5.426,-13.969c0,0-2.132-1.119-2.132-1.119-.248-.13-.584-.089-.935.113c0,0-14.116,8.151-14.116,8.151-.73.421-1.322,1.415-1.322,2.219c0,0,0,1.746,0,1.746s0,8.008,0,8.008s0,11.356,0,11.356c0,.804.592,1.114,1.322.693c0,0,23.515-13.576,23.515-13.576.73-.422,1.321-1.415,1.321-2.22c0,0,0-17.907,0-17.907c0-.804-.591-1.114-1.321-.693c0,0-5.397,3.116-5.397,3.116-.351.202-.687.243-.935.113Z" fill="#fbb03b" stroke-width="0"/></g><g transform="translate(122.762 112.662)"><path d="M5.426,-13.969c0,0-2.132-1.119-2.132-1.119-.248-.13-.584-.089-.935.113c0,0-14.116,8.151-14.116,8.151-.73.421-1.322,1.415-1.322,2.219c0,0,0,1.746,0,1.746s0,8.008,0,8.008s0,11.356,0,11.356c0,.804.592,1.114,1.322.693c0,0,23.515-13.576,23.515-13.576.73-.422,1.321-1.415,1.321-2.22c0,0,0-17.907,0-17.907c0-.804-.591-1.114-1.321-.693c0,0-5.397,3.116-5.397,3.116-.351.202-.687.243-.935.113Z" paint-order="stroke fill markers" fill="none" fill-rule="evenodd" stroke="#171a32" stroke-miterlimit="10"/></g><g transform="translate(122.762 159.107)"><path d="M5.426,-13.969c0,0-2.132-1.119-2.132-1.119-.248-.13-.584-.089-.935.113c0,0-14.116,8.15-14.116,8.15-.73.421-1.322,1.415-1.322,2.22c0,0,0,1.746,0,1.746s0,8.008,0,8.008s0,11.356,0,11.356c0,.804.592,1.114,1.322.693c0,0,23.515-13.577,23.515-13.577.73-.421,1.321-1.415,1.321-2.219c0,0,0-17.907,0-17.907c0-.804-.591-1.114-1.321-.693c0,0-5.397,3.116-5.397,3.116-.351.202-.687.243-.935.113Z" fill="#f2f2f2" stroke-width="0"/></g><g transform="translate(122.762 159.107)"><path d="M5.426,-13.969c0,0-2.132-1.119-2.132-1.119-.248-.13-.584-.089-.935.113c0,0-14.116,8.15-14.116,8.15-.73.421-1.322,1.415-1.322,2.22c0,0,0,1.746,0,1.746s0,8.008,0,8.008s0,11.356,0,11.356c0,.804.592,1.114,1.322.693c0,0,23.515-13.577,23.515-13.577.73-.421,1.321-1.415,1.321-2.219c0,0,0-17.907,0-17.907c0-.804-.591-1.114-1.321-.693c0,0-5.397,3.116-5.397,3.116-.351.202-.687.243-.935.113Z" paint-order="stroke fill markers" fill="none" fill-rule="evenodd" stroke="#171a32" stroke-miterlimit="10"/></g><g transform="translate(121.731 130.073)"><path d="M-11.21,6.472c0,0,22.42-12.944,22.42-12.944" paint-order="stroke fill markers" fill="none" fill-rule="evenodd" stroke="#171a32" stroke-linecap="round" stroke-miterlimit="10"/></g><g transform="translate(157.995 90.966)"><path d="M5.426,-13.969c0,0-2.132-1.119-2.132-1.119-.248-.13-.584-.089-.935.113c0,0-14.116,8.151-14.116,8.151-.73.421-1.322,1.415-1.322,2.219c0,0,0,1.746,0,1.746s0,8.008,0,8.008s0,11.356,0,11.356c0,.804.592,1.114,1.322.693c0,0,23.515-13.576,23.515-13.576.73-.422,1.321-1.415,1.321-2.22c0,0,0-17.907,0-17.907c0-.804-.591-1.114-1.321-.693c0,0-5.397,3.116-5.397,3.116-.351.202-.687.243-.935.113Z" fill="#f2f2f2" stroke-width="0"/></g><g transform="translate(157.995 90.966)"><path d="M5.426,-13.969c0,0-2.132-1.119-2.132-1.119-.248-.13-.584-.089-.935.113c0,0-14.116,8.151-14.116,8.151-.73.421-1.322,1.415-1.322,2.219c0,0,0,1.746,0,1.746s0,8.008,0,8.008s0,11.356,0,11.356c0,.804.592,1.114,1.322.693c0,0,23.515-13.576,23.515-13.576.73-.422,1.321-1.415,1.321-2.22c0,0,0-17.907,0-17.907c0-.804-.591-1.114-1.321-.693c0,0-5.397,3.116-5.397,3.116-.351.202-.687.243-.935.113Z" paint-order="stroke fill markers" fill="none" fill-rule="evenodd" stroke="#171a32" stroke-miterlimit="10"/></g><g transform="translate(156.965 108.378)"><path d="M-11.21,6.472c0,0,22.42-12.944,22.42-12.944" paint-order="stroke fill markers" fill="none" fill-rule="evenodd" stroke="#171a32" stroke-linecap="round" stroke-miterlimit="10"/></g><g transform="translate(121.731 176.517)"><path d="M-11.21,6.472c0,0,22.42-12.944,22.42-12.944" paint-order="stroke fill markers" fill="none" fill-rule="evenodd" stroke="#171a32" stroke-linecap="round" stroke-miterlimit="10"/></g><g transform="translate(119.018 230.092)"><path d="M67.855,-33.268c0,0-125.478,72.444-125.478,72.444s-10.232-5.908-10.232-5.908s125.477-72.444,125.477-72.444s10.233,5.908,10.233,5.908Z" fill="#f5f5f5" stroke-width="0"/></g><g transform="translate(137.086 240.523)"><path d="M67.855,-33.268c0,0-125.477,72.444-125.477,72.444s-10.232-5.908-10.232-5.908s125.476-72.444,125.476-72.444s10.233,5.908,10.233,5.908Z" fill="#f5f5f5" stroke-width="0"/></g><g transform="translate(155.154 250.954)"><path d="M67.854,-33.268c0,0-125.476,72.444-125.476,72.444s-10.232-5.908-10.232-5.908s125.477-72.443,125.477-72.443s10.231,5.907,10.231,5.907Z" fill="#f5f5f5" stroke-width="0"/></g><g transform="translate(173.221 261.386)"><path d="M67.855,-33.269c0,0-125.477,72.444-125.477,72.444s-10.232-5.907-10.232-5.907s125.476-72.444,125.476-72.444s10.233,5.907,10.233,5.907Z" fill="#f5f5f5" stroke-width="0"/></g><g transform="translate(208.901 281.986)"><path d="M48.611,-5.294c0,0-57.782,33.359-57.782,33.359s-39.44-22.77-39.44-22.77s57.782-33.36,57.782-33.36s39.44,22.771,39.44,22.771Z" fill="#f5f5f5" stroke-width="0"/></g><g transform="translate(305.311 91.331)"><path d="M56.914,22.163c0,0-4.924-2.852-4.924-2.852s.004-2.461.004-2.461c.019-12.989-7.727-28.111-17.214-33.605-3.055-1.77-5.928-2.319-8.426-1.836c0,0,0-.133,0-.133.026-18.09-10.753-45.782-23.964-53.435c0,0-10.187-5.901-10.187-5.901-11.876-6.879-21.81,5.984-23.72,20.447-1.449-1.386-2.965-2.581-4.538-3.492-9.486-5.495-17.262.637-17.281,13.626c0,0-.009,5.776-.009,5.776s-3.487-2.021-3.487-2.021c-9.438-5.467-17.173.634-17.191,13.555c0,0-.015,10.321-.015,10.321-.019,12.922,7.687,27.967,17.124,33.433c0,0,113.746,65.888,113.746,65.888c9.436,5.466,17.173-.634,17.191-13.556c0,0,.015-10.322.015-10.322.019-12.921-7.687-27.966-17.124-33.432Z" fill="#c2d1eb" stroke-width="0"/></g><g transform="translate(305.311 91.331)"><path d="M56.914,22.163c0,0-4.924-2.852-4.924-2.852s.004-2.461.004-2.461c.019-12.989-7.727-28.111-17.214-33.605-3.055-1.77-5.928-2.319-8.426-1.836c0,0,0-.133,0-.133.026-18.09-10.753-45.782-23.964-53.435c0,0-10.187-5.901-10.187-5.901-11.876-6.879-21.81,5.984-23.72,20.447-1.449-1.386-2.965-2.581-4.538-3.492-9.486-5.495-17.262.637-17.281,13.626c0,0-.009,5.776-.009,5.776s-3.487-2.021-3.487-2.021c-9.438-5.467-17.173.634-17.191,13.555c0,0-.015,10.321-.015,10.321-.019,12.922,7.687,27.967,17.124,33.433c0,0,113.746,65.888,113.746,65.888c9.436,5.466,17.173-.634,17.191-13.556c0,0,.015-10.322.015-10.322.019-12.921-7.687-27.966-17.124-33.432Z" paint-order="stroke fill markers" fill="none" fill-rule="evenodd" stroke="#124498" stroke-width="0.823" stroke-miterlimit="10"/></g><g transform="translate(305.311 91.331)"><path d="M56.914,22.163c0,0-4.924-2.852-4.924-2.852s.004-2.461.004-2.461c.019-12.989-7.727-28.111-17.214-33.605-3.055-1.77-5.928-2.319-8.426-1.836c0,0,0-.133,0-.133.026-18.09-10.753-45.782-23.964-53.435c0,0-10.187-5.901-10.187-5.901-11.876-6.879-21.81,5.984-23.72,20.447-1.449-1.386-2.965-2.581-4.538-3.492-9.486-5.495-17.262.637-17.281,13.626c0,0-.009,5.776-.009,5.776s-3.487-2.021-3.487-2.021c-9.438-5.467-17.173.634-17.191,13.555c0,0-.015,10.321-.015,10.321-.019,12.922,7.687,27.967,17.124,33.433c0,0,113.746,65.888,113.746,65.888c9.436,5.466,17.173-.634,17.191-13.556c0,0,.015-10.322.015-10.322.019-12.921-7.687-27.966-17.124-33.432Z" fill="#c2d1eb" stroke-width="0"/></g><g transform="translate(305.311 91.331)"><path d="M56.914,22.163c0,0-4.924-2.852-4.924-2.852s.004-2.461.004-2.461c.019-12.989-7.727-28.111-17.214-33.605-3.055-1.77-5.928-2.319-8.426-1.836c0,0,0-.133,0-.133.026-18.09-10.753-45.782-23.964-53.435c0,0-10.187-5.901-10.187-5.901-11.876-6.879-21.81,5.984-23.72,20.447-1.449-1.386-2.965-2.581-4.538-3.492-9.486-5.495-17.262.637-17.281,13.626c0,0-.009,5.776-.009,5.776s-3.487-2.021-3.487-2.021c-9.438-5.467-17.173.634-17.191,13.555c0,0-.015,10.321-.015,10.321-.019,12.922,7.687,27.967,17.124,33.433c0,0,113.746,65.888,113.746,65.888c9.436,5.466,17.173-.634,17.191-13.556c0,0,.015-10.322.015-10.322.019-12.921-7.687-27.966-17.124-33.432Z" paint-order="stroke fill markers" fill="none" fill-rule="evenodd" stroke="#124498" stroke-width="0.823" stroke-miterlimit="10"/></g><g transform="translate(305.311 91.331)"><path d="M56.914,22.163c0,0-4.924-2.852-4.924-2.852s.004-2.461.004-2.461c.019-12.989-7.727-28.111-17.214-33.605-3.055-1.77-5.928-2.319-8.426-1.836c0,0,0-.133,0-.133.026-18.09-10.753-45.782-23.964-53.435c0,0-10.187-5.901-10.187-5.901-11.876-6.879-21.81,5.984-23.72,20.447-1.449-1.386-2.965-2.581-4.538-3.492-9.486-5.495-17.262.637-17.281,13.626c0,0-.009,5.776-.009,5.776s-3.487-2.021-3.487-2.021c-9.438-5.467-17.173.634-17.191,13.555c0,0-.015,10.321-.015,10.321-.019,12.922,7.687,27.967,17.124,33.433c0,0,113.746,65.888,113.746,65.888c9.436,5.466,17.173-.634,17.191-13.556c0,0,.015-10.322.015-10.322.019-12.921-7.687-27.966-17.124-33.432Z" fill="#c2d1eb" stroke-width="0"/></g><g transform="translate(305.311 91.331)"><path d="M56.914,22.163c0,0-4.924-2.852-4.924-2.852s.004-2.461.004-2.461c.019-12.989-7.727-28.111-17.214-33.605-3.055-1.77-5.928-2.319-8.426-1.836c0,0,0-.133,0-.133.026-18.09-10.753-45.782-23.964-53.435c0,0-10.187-5.901-10.187-5.901-11.876-6.879-21.81,5.984-23.72,20.447-1.449-1.386-2.965-2.581-4.538-3.492-9.486-5.495-17.262.637-17.281,13.626c0,0-.009,5.776-.009,5.776s-3.487-2.021-3.487-2.021c-9.438-5.467-17.173.634-17.191,13.555c0,0-.015,10.321-.015,10.321-.019,12.922,7.687,27.967,17.124,33.433c0,0,113.746,65.888,113.746,65.888c9.436,5.466,17.173-.634,17.191-13.556c0,0,.015-10.322.015-10.322.019-12.921-7.687-27.966-17.124-33.432Z" paint-order="stroke fill markers" fill="none" fill-rule="evenodd" stroke="#124498" stroke-width="0.823" stroke-miterlimit="10"/></g><g transform="translate(305.311 91.331)"><path d="M56.914,22.163c0,0-4.924-2.852-4.924-2.852s.004-2.461.004-2.461c.019-12.989-7.727-28.111-17.214-33.605-3.055-1.77-5.928-2.319-8.426-1.836c0,0,0-.133,0-.133.026-18.09-10.753-45.782-23.964-53.435c0,0-10.187-5.901-10.187-5.901-11.876-6.879-21.81,5.984-23.72,20.447-1.449-1.386-2.965-2.581-4.538-3.492-9.486-5.495-17.262.637-17.281,13.626c0,0-.009,5.776-.009,5.776s-3.487-2.021-3.487-2.021c-9.438-5.467-17.173.634-17.191,13.555c0,0-.015,10.321-.015,10.321-.019,12.922,7.687,27.967,17.124,33.433c0,0,113.746,65.888,113.746,65.888c9.436,5.466,17.173-.634,17.191-13.556c0,0,.015-10.322.015-10.322.019-12.921-7.687-27.966-17.124-33.432Z" fill="#c2d1eb" stroke-width="0"/></g><g transform="translate(305.311 91.331)"><path d="M56.914,22.163c0,0-4.924-2.852-4.924-2.852s.004-2.461.004-2.461c.019-12.989-7.727-28.111-17.214-33.605-3.055-1.77-5.928-2.319-8.426-1.836c0,0,0-.133,0-.133.026-18.09-10.753-45.782-23.964-53.435c0,0-10.187-5.901-10.187-5.901-11.876-6.879-21.81,5.984-23.72,20.447-1.449-1.386-2.965-2.581-4.538-3.492-9.486-5.495-17.262.637-17.281,13.626c0,0-.009,5.776-.009,5.776s-3.487-2.021-3.487-2.021c-9.438-5.467-17.173.634-17.191,13.555c0,0-.015,10.321-.015,10.321-.019,12.922,7.687,27.967,17.124,33.433c0,0,113.746,65.888,113.746,65.888c9.436,5.466,17.173-.634,17.191-13.556c0,0,.015-10.322.015-10.322.019-12.921-7.687-27.966-17.124-33.432Z" paint-order="stroke fill markers" fill="none" fill-rule="evenodd" stroke="#124498" stroke-width="0.823" stroke-miterlimit="10"/></g><g transform="translate(305.311 91.331)"><path d="M56.914,22.163c0,0-4.924-2.852-4.924-2.852s.004-2.461.004-2.461c.019-12.989-7.727-28.111-17.214-33.605-3.055-1.77-5.928-2.319-8.426-1.836c0,0,0-.133,0-.133.026-18.09-10.753-45.782-23.964-53.435c0,0-10.187-5.901-10.187-5.901-11.876-6.879-21.81,5.984-23.72,20.447-1.449-1.386-2.965-2.581-4.538-3.492-9.486-5.495-17.262.637-17.281,13.626c0,0-.009,5.776-.009,5.776s-3.487-2.021-3.487-2.021c-9.438-5.467-17.173.634-17.191,13.555c0,0-.015,10.321-.015,10.321-.019,12.922,7.687,27.967,17.124,33.433c0,0,113.746,65.888,113.746,65.888c9.436,5.466,17.173-.634,17.191-13.556c0,0,.015-10.322.015-10.322.019-12.921-7.687-27.966-17.124-33.432Z" fill="#c2d1eb" stroke-width="0"/></g><g transform="translate(305.311 91.331)"><path d="M56.914,22.163c0,0-4.924-2.852-4.924-2.852s.004-2.461.004-2.461c.019-12.989-7.727-28.111-17.214-33.605-3.055-1.77-5.928-2.319-8.426-1.836c0,0,0-.133,0-.133.026-18.09-10.753-45.782-23.964-53.435c0,0-10.187-5.901-10.187-5.901-11.876-6.879-21.81,5.984-23.72,20.447-1.449-1.386-2.965-2.581-4.538-3.492-9.486-5.495-17.262.637-17.281,13.626c0,0-.009,5.776-.009,5.776s-3.487-2.021-3.487-2.021c-9.438-5.467-17.173.634-17.191,13.555c0,0-.015,10.321-.015,10.321-.019,12.922,7.687,27.967,17.124,33.433c0,0,113.746,65.888,113.746,65.888c9.436,5.466,17.173-.634,17.191-13.556c0,0,.015-10.322.015-10.322.019-12.921-7.687-27.966-17.124-33.432Z" paint-order="stroke fill markers" fill="none" fill-rule="evenodd" stroke="#124498" stroke-width="0.823" stroke-miterlimit="10"/></g><g transform="translate(305.311 91.331)"><path d="M56.914,22.163c0,0-4.924-2.852-4.924-2.852s.004-2.461.004-2.461c.019-12.989-7.727-28.111-17.214-33.605-3.055-1.77-5.928-2.319-8.426-1.836c0,0,0-.133,0-.133.026-18.09-10.753-45.782-23.964-53.435c0,0-10.187-5.901-10.187-5.901-11.876-6.879-21.81,5.984-23.72,20.447-1.449-1.386-2.965-2.581-4.538-3.492-9.486-5.495-17.262.637-17.281,13.626c0,0-.009,5.776-.009,5.776s-3.487-2.021-3.487-2.021c-9.438-5.467-17.173.634-17.191,13.555c0,0-.015,10.321-.015,10.321-.019,12.922,7.687,27.967,17.124,33.433c0,0,113.746,65.888,113.746,65.888c9.436,5.466,17.173-.634,17.191-13.556c0,0,.015-10.322.015-10.322.019-12.921-7.687-27.966-17.124-33.432Z" fill="#c2d1eb" stroke-width="0"/></g><g transform="translate(305.311 91.331)"><path d="M56.914,22.163c0,0-4.924-2.852-4.924-2.852s.004-2.461.004-2.461c.019-12.989-7.727-28.111-17.214-33.605-3.055-1.77-5.928-2.319-8.426-1.836c0,0,0-.133,0-.133.026-18.09-10.753-45.782-23.964-53.435c0,0-10.187-5.901-10.187-5.901-11.876-6.879-21.81,5.984-23.72,20.447-1.449-1.386-2.965-2.581-4.538-3.492-9.486-5.495-17.262.637-17.281,13.626c0,0-.009,5.776-.009,5.776s-3.487-2.021-3.487-2.021c-9.438-5.467-17.173.634-17.191,13.555c0,0-.015,10.321-.015,10.321-.019,12.922,7.687,27.967,17.124,33.433c0,0,113.746,65.888,113.746,65.888c9.436,5.466,17.173-.634,17.191-13.556c0,0,.015-10.322.015-10.322.019-12.921-7.687-27.966-17.124-33.432Z" paint-order="stroke fill markers" fill="none" fill-rule="evenodd" stroke="#124498" stroke-width="0.823" stroke-miterlimit="10"/></g><g transform="translate(305.311 91.331)"><path d="M56.914,22.163c0,0-4.924-2.852-4.924-2.852s.004-2.461.004-2.461c.019-12.989-7.727-28.111-17.214-33.605-3.055-1.77-5.928-2.319-8.426-1.836c0,0,0-.133,0-.133.026-18.09-10.753-45.782-23.964-53.435c0,0-10.187-5.901-10.187-5.901-11.876-6.879-21.81,5.984-23.72,20.447-1.449-1.386-2.965-2.581-4.538-3.492-9.486-5.495-17.262.637-17.281,13.626c0,0-.009,5.776-.009,5.776s-3.487-2.021-3.487-2.021c-9.438-5.467-17.173.634-17.191,13.555c0,0-.015,10.321-.015,10.321-.019,12.922,7.687,27.967,17.124,33.433c0,0,113.746,65.888,113.746,65.888c9.436,5.466,17.173-.634,17.191-13.556c0,0,.015-10.322.015-10.322.019-12.921-7.687-27.966-17.124-33.432Z" fill="#c2d1eb" stroke-width="0"/></g><g transform="translate(305.311 91.331)"><path d="M56.914,22.163c0,0-4.924-2.852-4.924-2.852s.004-2.461.004-2.461c.019-12.989-7.727-28.111-17.214-33.605-3.055-1.77-5.928-2.319-8.426-1.836c0,0,0-.133,0-.133.026-18.09-10.753-45.782-23.964-53.435c0,0-10.187-5.901-10.187-5.901-11.876-6.879-21.81,5.984-23.72,20.447-1.449-1.386-2.965-2.581-4.538-3.492-9.486-5.495-17.262.637-17.281,13.626c0,0-.009,5.776-.009,5.776s-3.487-2.021-3.487-2.021c-9.438-5.467-17.173.634-17.191,13.555c0,0-.015,10.321-.015,10.321-.019,12.922,7.687,27.967,17.124,33.433c0,0,113.746,65.888,113.746,65.888c9.436,5.466,17.173-.634,17.191-13.556c0,0,.015-10.322.015-10.322.019-12.921-7.687-27.966-17.124-33.432Z" paint-order="stroke fill markers" fill="none" fill-rule="evenodd" stroke="#124498" stroke-width="0.823" stroke-miterlimit="10"/></g><g transform="translate(305.311 91.331)"><path d="M56.914,22.163c0,0-4.924-2.852-4.924-2.852s.004-2.461.004-2.461c.019-12.989-7.727-28.111-17.214-33.605-3.055-1.77-5.928-2.319-8.426-1.836c0,0,0-.133,0-.133.026-18.09-10.753-45.782-23.964-53.435c0,0-10.187-5.901-10.187-5.901-11.876-6.879-21.81,5.984-23.72,20.447-1.449-1.386-2.965-2.581-4.538-3.492-9.486-5.495-17.262.637-17.281,13.626c0,0-.009,5.776-.009,5.776s-3.487-2.021-3.487-2.021c-9.438-5.467-17.173.634-17.191,13.555c0,0-.015,10.321-.015,10.321-.019,12.922,7.687,27.967,17.124,33.433c0,0,113.746,65.888,113.746,65.888c9.436,5.466,17.173-.634,17.191-13.556c0,0,.015-10.322.015-10.322.019-12.921-7.687-27.966-17.124-33.432Z" fill="#c2d1eb" stroke-width="0"/></g><g transform="translate(305.311 91.331)"><path d="M56.914,22.163c0,0-4.924-2.852-4.924-2.852s.004-2.461.004-2.461c.019-12.989-7.727-28.111-17.214-33.605-3.055-1.77-5.928-2.319-8.426-1.836c0,0,0-.133,0-.133.026-18.09-10.753-45.782-23.964-53.435c0,0-10.187-5.901-10.187-5.901-11.876-6.879-21.81,5.984-23.72,20.447-1.449-1.386-2.965-2.581-4.538-3.492-9.486-5.495-17.262.637-17.281,13.626c0,0-.009,5.776-.009,5.776s-3.487-2.021-3.487-2.021c-9.438-5.467-17.173.634-17.191,13.555c0,0-.015,10.321-.015,10.321-.019,12.922,7.687,27.967,17.124,33.433c0,0,113.746,65.888,113.746,65.888c9.436,5.466,17.173-.634,17.191-13.556c0,0,.015-10.322.015-10.322.019-12.921-7.687-27.966-17.124-33.432Z" paint-order="stroke fill markers" fill="none" fill-rule="evenodd" stroke="#124498" stroke-width="0.823" stroke-miterlimit="10"/></g><g transform="translate(305.311 91.331)"><path d="M56.914,22.163c0,0-4.924-2.852-4.924-2.852s.004-2.461.004-2.461c.019-12.989-7.727-28.111-17.214-33.605-3.055-1.77-5.928-2.319-8.426-1.836c0,0,0-.133,0-.133.026-18.09-10.753-45.782-23.964-53.435c0,0-10.187-5.901-10.187-5.901-11.876-6.879-21.81,5.984-23.72,20.447-1.449-1.386-2.965-2.581-4.538-3.492-9.486-5.495-17.262.637-17.281,13.626c0,0-.009,5.776-.009,5.776s-3.487-2.021-3.487-2.021c-9.438-5.467-17.173.634-17.191,13.555c0,0-.015,10.321-.015,10.321-.019,12.922,7.687,27.967,17.124,33.433c0,0,113.746,65.888,113.746,65.888c9.436,5.466,17.173-.634,17.191-13.556c0,0,.015-10.322.015-10.322.019-12.921-7.687-27.966-17.124-33.432Z" fill="#c2d1eb" stroke-width="0"/></g><g transform="translate(305.311 91.331)"><path d="M56.914,22.163c0,0-4.924-2.852-4.924-2.852s.004-2.461.004-2.461c.019-12.989-7.727-28.111-17.214-33.605-3.055-1.77-5.928-2.319-8.426-1.836c0,0,0-.133,0-.133.026-18.09-10.753-45.782-23.964-53.435c0,0-10.187-5.901-10.187-5.901-11.876-6.879-21.81,5.984-23.72,20.447-1.449-1.386-2.965-2.581-4.538-3.492-9.486-5.495-17.262.637-17.281,13.626c0,0-.009,5.776-.009,5.776s-3.487-2.021-3.487-2.021c-9.438-5.467-17.173.634-17.191,13.555c0,0-.015,10.321-.015,10.321-.019,12.922,7.687,27.967,17.124,33.433c0,0,113.746,65.888,113.746,65.888c9.436,5.466,17.173-.634,17.191-13.556c0,0,.015-10.322.015-10.322.019-12.921-7.687-27.966-17.124-33.432Z" paint-order="stroke fill markers" fill="none" fill-rule="evenodd" stroke="#124498" stroke-width="0.823" stroke-miterlimit="10"/></g><g transform="translate(305.311 91.331)"><path d="M56.914,22.163c0,0-4.924-2.852-4.924-2.852s.004-2.461.004-2.461c.019-12.989-7.727-28.111-17.214-33.605-3.055-1.77-5.928-2.319-8.426-1.836c0,0,0-.133,0-.133.026-18.09-10.753-45.782-23.964-53.435c0,0-10.187-5.901-10.187-5.901-11.876-6.879-21.81,5.984-23.72,20.447-1.449-1.386-2.965-2.581-4.538-3.492-9.486-5.495-17.262.637-17.281,13.626c0,0-.009,5.776-.009,5.776s-3.487-2.021-3.487-2.021c-9.438-5.467-17.173.634-17.191,13.555c0,0-.015,10.321-.015,10.321-.019,12.922,7.687,27.967,17.124,33.433c0,0,113.746,65.888,113.746,65.888c9.436,5.466,17.173-.634,17.191-13.556c0,0,.015-10.322.015-10.322.019-12.921-7.687-27.966-17.124-33.432Z" fill="#c2d1eb" stroke-width="0"/></g><g transform="translate(305.311 91.331)"><path d="M56.914,22.163c0,0-4.924-2.852-4.924-2.852s.004-2.461.004-2.461c.019-12.989-7.727-28.111-17.214-33.605-3.055-1.77-5.928-2.319-8.426-1.836c0,0,0-.133,0-.133.026-18.09-10.753-45.782-23.964-53.435c0,0-10.187-5.901-10.187-5.901-11.876-6.879-21.81,5.984-23.72,20.447-1.449-1.386-2.965-2.581-4.538-3.492-9.486-5.495-17.262.637-17.281,13.626c0,0-.009,5.776-.009,5.776s-3.487-2.021-3.487-2.021c-9.438-5.467-17.173.634-17.191,13.555c0,0-.015,10.321-.015,10.321-.019,12.922,7.687,27.967,17.124,33.433c0,0,113.746,65.888,113.746,65.888c9.436,5.466,17.173-.634,17.191-13.556c0,0,.015-10.322.015-10.322.019-12.921-7.687-27.966-17.124-33.432Z" paint-order="stroke fill markers" fill="none" fill-rule="evenodd" stroke="#124498" stroke-width="0.823" stroke-miterlimit="10"/></g><g transform="translate(306.27 90.898)"><path d="M-31.516,-57.613c-1.449-1.386-2.967-2.581-4.539-3.492-9.485-5.494-17.262.637-17.28,13.626c0,0-.009,5.776-.009,5.776s-3.487-2.02-3.487-2.02c-9.438-5.467-17.173.633-17.192,13.554c0,0-.014,10.322-.014,10.322-.019,12.922,7.686,27.966,17.124,33.432c0,0,113.746,65.887,113.746,65.887c9.436,5.467,17.172-.633,17.19-13.555c0,0,.015-10.321.015-10.321.018-12.921-7.687-27.966-17.124-33.432c0,0-4.923-2.852-4.923-2.852s.004-2.461.004-2.461c.018-12.989-7.728-28.112-17.214-33.607-3.056-1.769-5.928-2.318-8.427-1.835c0,0,.001-.132.001-.132.025-18.09-10.753-45.783-23.965-53.435c0,0-10.186-5.901-10.186-5.901-11.876-6.879-21.81,5.983-23.72,20.446Z" fill="#b8cce7" stroke-width="0"/></g><g transform="translate(306.27 90.898)"><path d="M-31.516,-57.613c-1.449-1.386-2.967-2.581-4.539-3.492-9.485-5.494-17.262.637-17.28,13.626c0,0-.009,5.776-.009,5.776s-3.487-2.02-3.487-2.02c-9.438-5.467-17.173.633-17.192,13.554c0,0-.014,10.322-.014,10.322-.019,12.922,7.686,27.966,17.124,33.432c0,0,113.746,65.887,113.746,65.887c9.436,5.467,17.172-.633,17.19-13.555c0,0,.015-10.321.015-10.321.018-12.921-7.687-27.966-17.124-33.432c0,0-4.923-2.852-4.923-2.852s.004-2.461.004-2.461c.018-12.989-7.728-28.112-17.214-33.607-3.056-1.769-5.928-2.318-8.427-1.835c0,0,.001-.132.001-.132.025-18.09-10.753-45.783-23.965-53.435c0,0-10.186-5.901-10.186-5.901-11.876-6.879-21.81,5.983-23.72,20.446Z" paint-order="stroke fill markers" fill="none" fill-rule="evenodd" stroke="#133f8d" stroke-width="0.842" stroke-miterlimit="10"/></g><g transform="translate(307.23 90.466)"><path d="M-31.516,-57.613c-1.449-1.386-2.967-2.581-4.539-3.492-9.485-5.494-17.262.637-17.28,13.626c0,0-.009,5.776-.009,5.776s-3.488-2.02-3.488-2.02c-9.437-5.466-17.172.633-17.191,13.554c0,0-.014,10.322-.014,10.322-.019,12.922,7.686,27.966,17.124,33.432c0,0,113.745,65.887,113.745,65.887c9.437,5.467,17.173-.634,17.191-13.555c0,0,.015-10.321.015-10.321.018-12.921-7.688-27.965-17.124-33.432c0,0-4.923-2.852-4.923-2.852s.003-2.461.003-2.461c.018-12.988-7.728-28.111-17.213-33.607-3.056-1.769-5.928-2.318-8.427-1.835c0,0,0-.132,0-.132.026-18.09-10.752-45.783-23.964-53.435c0,0-10.186-5.901-10.186-5.901-11.876-6.879-21.81,5.983-23.72,20.446Z" fill="#afc6e3" stroke-width="0"/></g><g transform="translate(307.23 90.466)"><path d="M-31.516,-57.613c-1.449-1.386-2.967-2.581-4.539-3.492-9.485-5.494-17.262.637-17.28,13.626c0,0-.009,5.776-.009,5.776s-3.488-2.02-3.488-2.02c-9.437-5.466-17.172.633-17.191,13.554c0,0-.014,10.322-.014,10.322-.019,12.922,7.686,27.966,17.124,33.432c0,0,113.745,65.887,113.745,65.887c9.437,5.467,17.173-.634,17.191-13.555c0,0,.015-10.321.015-10.321.018-12.921-7.688-27.965-17.124-33.432c0,0-4.923-2.852-4.923-2.852s.003-2.461.003-2.461c.018-12.988-7.728-28.111-17.213-33.607-3.056-1.769-5.928-2.318-8.427-1.835c0,0,0-.132,0-.132.026-18.09-10.752-45.783-23.964-53.435c0,0-10.186-5.901-10.186-5.901-11.876-6.879-21.81,5.983-23.72,20.446Z" paint-order="stroke fill markers" fill="none" fill-rule="evenodd" stroke="#133b81" stroke-width="0.862" stroke-miterlimit="10"/></g><g transform="translate(308.19 90.033)"><path d="M-31.516,-57.612c-1.449-1.386-2.967-2.582-4.539-3.492-9.486-5.495-17.262.637-17.28,13.625c0,0-.008,5.777-.008,5.777s-3.488-2.021-3.488-2.021c-9.437-5.467-17.174.634-17.193,13.555c0,0-.013,10.322-.013,10.322-.019,12.921,7.687,27.965,17.124,33.432c0,0,113.746,65.887,113.746,65.887c9.437,5.466,17.172-.633,17.19-13.555c0,0,.016-10.322.016-10.322.018-12.921-7.689-27.966-17.125-33.432c0,0-4.922-2.852-4.922-2.852s.003-2.46.003-2.46c.018-12.989-7.729-28.112-17.214-33.607-3.056-1.77-5.928-2.318-8.427-1.835c0,0,0-.134,0-.134.026-18.09-10.752-45.782-23.963-53.435c0,0-10.188-5.901-10.188-5.901-11.875-6.879-21.809,5.984-23.719,20.448Z" fill="#a5c1e0" stroke-width="0"/></g><g transform="translate(308.19 90.033)"><path d="M-31.516,-57.612c-1.449-1.386-2.967-2.582-4.539-3.492-9.486-5.495-17.262.637-17.28,13.625c0,0-.008,5.777-.008,5.777s-3.488-2.021-3.488-2.021c-9.437-5.467-17.174.634-17.193,13.555c0,0-.013,10.322-.013,10.322-.019,12.921,7.687,27.965,17.124,33.432c0,0,113.746,65.887,113.746,65.887c9.437,5.466,17.172-.633,17.19-13.555c0,0,.016-10.322.016-10.322.018-12.921-7.689-27.966-17.125-33.432c0,0-4.922-2.852-4.922-2.852s.003-2.46.003-2.46c.018-12.989-7.729-28.112-17.214-33.607-3.056-1.77-5.928-2.318-8.427-1.835c0,0,0-.134,0-.134.026-18.09-10.752-45.782-23.963-53.435c0,0-10.188-5.901-10.188-5.901-11.875-6.879-21.809,5.984-23.719,20.448Z" paint-order="stroke fill markers" fill="none" fill-rule="evenodd" stroke="#143676" stroke-width="0.882" stroke-miterlimit="10"/></g><g transform="translate(309.15 89.601)"><path d="M-31.516,-57.612c-1.449-1.386-2.967-2.583-4.539-3.493-9.486-5.495-17.262.637-17.28,13.626c0,0-.008,5.776-.008,5.776s-3.488-2.02-3.488-2.02c-9.437-5.467-17.174.633-17.193,13.554c0,0-.013,10.322-.013,10.322-.019,12.921,7.687,27.965,17.124,33.432c0,0,113.746,65.887,113.746,65.887c9.436,5.466,17.172-.633,17.19-13.555c0,0,.016-10.321.016-10.321.018-12.921-7.689-27.966-17.125-33.432c0,0-4.922-2.852-4.922-2.852s.003-2.461.003-2.461c.018-12.989-7.728-28.112-17.214-33.607-3.055-1.77-5.928-2.318-8.427-1.835c0,0,0-.133,0-.133.026-18.09-10.752-45.782-23.964-53.435c0,0-10.187-5.9-10.187-5.9-11.875-6.879-21.809,5.983-23.719,20.447Z" fill="#9bbcdc" stroke-width="0"/></g><g transform="translate(309.15 89.601)"><path d="M-31.516,-57.612c-1.449-1.386-2.967-2.583-4.539-3.493-9.486-5.495-17.262.637-17.28,13.626c0,0-.008,5.776-.008,5.776s-3.488-2.02-3.488-2.02c-9.437-5.467-17.174.633-17.193,13.554c0,0-.013,10.322-.013,10.322-.019,12.921,7.687,27.965,17.124,33.432c0,0,113.746,65.887,113.746,65.887c9.436,5.466,17.172-.633,17.19-13.555c0,0,.016-10.321.016-10.321.018-12.921-7.689-27.966-17.125-33.432c0,0-4.922-2.852-4.922-2.852s.003-2.461.003-2.461c.018-12.989-7.728-28.112-17.214-33.607-3.055-1.77-5.928-2.318-8.427-1.835c0,0,0-.133,0-.133.026-18.09-10.752-45.782-23.964-53.435c0,0-10.187-5.9-10.187-5.9-11.875-6.879-21.809,5.983-23.719,20.447Z" paint-order="stroke fill markers" fill="none" fill-rule="evenodd" stroke="#14316b" stroke-width="0.901" stroke-miterlimit="10"/></g><g transform="translate(310.11 89.168)"><path d="M-31.515,-57.612c-1.449-1.386-2.967-2.582-4.539-3.493-9.486-5.495-17.263.637-17.281,13.626c0,0-.008,5.776-.008,5.776s-3.488-2.02-3.488-2.02c-9.437-5.467-17.174.633-17.193,13.554c0,0-.013,10.322-.013,10.322-.019,12.922,7.687,27.965,17.124,33.432c0,0,113.745,65.887,113.745,65.887c9.436,5.466,17.174-.633,17.192-13.555c0,0,.014-10.321.014-10.321.018-12.921-7.687-27.966-17.123-33.432c0,0-4.924-2.852-4.924-2.852s.003-2.461.003-2.461c.018-12.989-7.728-28.112-17.214-33.607-3.055-1.77-5.927-2.318-8.425-1.835c0,0,0-.133,0-.133.026-18.089-10.754-45.782-23.966-53.435c0,0-10.185-5.9-10.185-5.9-11.875-6.879-21.81,5.984-23.719,20.447Z" fill="#92b6d8" stroke-width="0"/></g><g transform="translate(310.11 89.168)"><path d="M-31.515,-57.612c-1.449-1.386-2.967-2.582-4.539-3.493-9.486-5.495-17.263.637-17.281,13.626c0,0-.008,5.776-.008,5.776s-3.488-2.02-3.488-2.02c-9.437-5.467-17.174.633-17.193,13.554c0,0-.013,10.322-.013,10.322-.019,12.922,7.687,27.965,17.124,33.432c0,0,113.745,65.887,113.745,65.887c9.436,5.466,17.174-.633,17.192-13.555c0,0,.014-10.321.014-10.321.018-12.921-7.687-27.966-17.123-33.432c0,0-4.924-2.852-4.924-2.852s.003-2.461.003-2.461c.018-12.989-7.728-28.112-17.214-33.607-3.055-1.77-5.927-2.318-8.425-1.835c0,0,0-.133,0-.133.026-18.089-10.754-45.782-23.966-53.435c0,0-10.185-5.9-10.185-5.9-11.875-6.879-21.81,5.984-23.719,20.447Z" paint-order="stroke fill markers" fill="none" fill-rule="evenodd" stroke="#152d5f" stroke-width="0.921" stroke-miterlimit="10"/></g><g transform="translate(311.07 88.736)"><path d="M-31.515,-57.613c-1.45-1.386-2.967-2.581-4.539-3.492-9.486-5.495-17.263.637-17.281,13.626c0,0-.01,5.776-.01,5.776s-3.486-2.02-3.486-2.02c-9.437-5.467-17.174.633-17.193,13.554c0,0-.013,10.322-.013,10.322-.019,12.922,7.687,27.966,17.124,33.432c0,0,113.745,65.887,113.745,65.887c9.436,5.467,17.174-.633,17.192-13.555c0,0,.014-10.321.014-10.321.018-12.921-7.687-27.966-17.123-33.432c0,0-4.924-2.852-4.924-2.852s.003-2.461.003-2.461c.018-12.989-7.728-28.112-17.214-33.607-3.056-1.77-5.927-2.318-8.425-1.835c0,0,0-.132,0-.132.026-18.09-10.754-45.783-23.966-53.435c0,0-10.185-5.901-10.185-5.901-11.876-6.879-21.81,5.983-23.719,20.446Z" fill="#88b1d4" stroke-width="0"/></g><g transform="translate(311.07 88.736)"><path d="M-31.515,-57.613c-1.45-1.386-2.967-2.581-4.539-3.492-9.486-5.495-17.263.637-17.281,13.626c0,0-.01,5.776-.01,5.776s-3.486-2.02-3.486-2.02c-9.437-5.467-17.174.633-17.193,13.554c0,0-.013,10.322-.013,10.322-.019,12.922,7.687,27.966,17.124,33.432c0,0,113.745,65.887,113.745,65.887c9.436,5.467,17.174-.633,17.192-13.555c0,0,.014-10.321.014-10.321.018-12.921-7.687-27.966-17.123-33.432c0,0-4.924-2.852-4.924-2.852s.003-2.461.003-2.461c.018-12.989-7.728-28.112-17.214-33.607-3.056-1.77-5.927-2.318-8.425-1.835c0,0,0-.132,0-.132.026-18.09-10.754-45.783-23.966-53.435c0,0-10.185-5.901-10.185-5.901-11.876-6.879-21.81,5.983-23.719,20.446Z" paint-order="stroke fill markers" fill="none" fill-rule="evenodd" stroke="#152854" stroke-width="0.941" stroke-miterlimit="10"/></g><g transform="translate(312.029 88.303)"><path d="M-31.516,-57.613c-1.449-1.386-2.967-2.581-4.538-3.492-9.486-5.494-17.263.637-17.281,13.626c0,0-.009,5.776-.009,5.776s-3.487-2.02-3.487-2.02c-9.438-5.467-17.173.633-17.192,13.554c0,0-.014,10.322-.014,10.322-.019,12.922,7.687,27.966,17.124,33.432c0,0,113.746,65.887,113.746,65.887c9.436,5.467,17.172-.633,17.19-13.555c0,0,.016-10.321.016-10.321.017-12.921-7.688-27.966-17.125-33.432c0,0-4.923-2.852-4.923-2.852s.004-2.461.004-2.461c.018-12.989-7.728-28.112-17.214-33.607-3.056-1.769-5.928-2.318-8.427-1.835c0,0,.001-.132.001-.132.025-18.09-10.753-45.783-23.965-53.435c0,0-10.186-5.901-10.186-5.901-11.876-6.879-21.81,5.983-23.72,20.446Z" fill="#7eacd1" stroke-width="0"/></g><g transform="translate(312.029 88.303)"><path d="M-31.516,-57.613c-1.449-1.386-2.967-2.581-4.538-3.492-9.486-5.494-17.263.637-17.281,13.626c0,0-.009,5.776-.009,5.776s-3.487-2.02-3.487-2.02c-9.438-5.467-17.173.633-17.192,13.554c0,0-.014,10.322-.014,10.322-.019,12.922,7.687,27.966,17.124,33.432c0,0,113.746,65.887,113.746,65.887c9.436,5.467,17.172-.633,17.19-13.555c0,0,.016-10.321.016-10.321.017-12.921-7.688-27.966-17.125-33.432c0,0-4.923-2.852-4.923-2.852s.004-2.461.004-2.461c.018-12.989-7.728-28.112-17.214-33.607-3.056-1.769-5.928-2.318-8.427-1.835c0,0,.001-.132.001-.132.025-18.09-10.753-45.783-23.965-53.435c0,0-10.186-5.901-10.186-5.901-11.876-6.879-21.81,5.983-23.72,20.446Z" paint-order="stroke fill markers" fill="none" fill-rule="evenodd" stroke="#162349" stroke-width="0.961" stroke-miterlimit="10"/></g><g transform="translate(312.989 87.871)"><path d="M-31.516,-57.613c-1.449-1.386-2.967-2.581-4.539-3.492-9.485-5.494-17.262.637-17.28,13.626c0,0-.009,5.776-.009,5.776s-3.488-2.02-3.488-2.02c-9.437-5.466-17.172.632-17.191,13.554c0,0-.014,10.322-.014,10.322-.019,12.922,7.686,27.966,17.124,33.432c0,0,113.745,65.887,113.745,65.887c9.437,5.467,17.173-.634,17.191-13.555c0,0,.015-10.321.015-10.321.018-12.921-7.687-27.965-17.124-33.432c0,0-4.923-2.852-4.923-2.852s.003-2.461.003-2.461c.018-12.988-7.728-28.111-17.213-33.607-3.056-1.769-5.928-2.318-8.427-1.835c0,0,0-.132,0-.132.026-18.09-10.752-45.783-23.964-53.435c0,0-10.186-5.901-10.186-5.901-11.876-6.879-21.81,5.983-23.72,20.446Z" fill="#75a6cd" stroke-width="0"/></g><g transform="translate(312.989 87.871)"><path d="M-31.516,-57.613c-1.449-1.386-2.967-2.581-4.539-3.492-9.485-5.494-17.262.637-17.28,13.626c0,0-.009,5.776-.009,5.776s-3.488-2.02-3.488-2.02c-9.437-5.466-17.172.632-17.191,13.554c0,0-.014,10.322-.014,10.322-.019,12.922,7.686,27.966,17.124,33.432c0,0,113.745,65.887,113.745,65.887c9.437,5.467,17.173-.634,17.191-13.555c0,0,.015-10.321.015-10.321.018-12.921-7.687-27.965-17.124-33.432c0,0-4.923-2.852-4.923-2.852s.003-2.461.003-2.461c.018-12.988-7.728-28.111-17.213-33.607-3.056-1.769-5.928-2.318-8.427-1.835c0,0,0-.132,0-.132.026-18.09-10.752-45.783-23.964-53.435c0,0-10.186-5.901-10.186-5.901-11.876-6.879-21.81,5.983-23.72,20.446Z" paint-order="stroke fill markers" fill="none" fill-rule="evenodd" stroke="#161f3d" stroke-width="0.98" stroke-miterlimit="10"/></g><g transform="translate(313.949 87.438)"><path d="M56.914,22.164c0,0-4.923-2.852-4.923-2.852s.002-2.461.002-2.461c.019-12.989-7.727-28.112-17.213-33.606-3.055-1.77-5.928-2.319-8.427-1.836c0,0,0-.133,0-.133.027-18.09-10.752-45.782-23.962-53.435c0,0-10.188-5.901-10.188-5.901-11.875-6.878-21.81,5.984-23.72,20.448-1.449-1.386-2.966-2.582-4.539-3.493-9.485-5.495-17.261.637-17.28,13.626c0,0-.009,5.776-.009,5.776s-3.487-2.02-3.487-2.02c-9.437-5.467-17.173.633-17.191,13.554c0,0-.015,10.322-.015,10.322-.018,12.921,7.687,27.966,17.124,33.432c0,0,113.746,65.887,113.746,65.887c9.437,5.466,17.172-.633,17.19-13.555c0,0,.016-10.321.016-10.321.019-12.921-7.687-27.966-17.124-33.432Z" fill="#6ba1c9" stroke-width="0"/></g><g transform="translate(313.949 87.438)"><path d="M56.914,22.164c0,0-4.923-2.852-4.923-2.852s.002-2.461.002-2.461c.019-12.989-7.727-28.112-17.213-33.606-3.055-1.77-5.928-2.319-8.427-1.836c0,0,0-.133,0-.133.027-18.09-10.752-45.782-23.962-53.435c0,0-10.188-5.901-10.188-5.901-11.875-6.878-21.81,5.984-23.72,20.448-1.449-1.386-2.966-2.582-4.539-3.493-9.485-5.495-17.261.637-17.28,13.626c0,0-.009,5.776-.009,5.776s-3.487-2.02-3.487-2.02c-9.437-5.467-17.173.633-17.191,13.554c0,0-.015,10.322-.015,10.322-.018,12.921,7.687,27.966,17.124,33.432c0,0,113.746,65.887,113.746,65.887c9.437,5.466,17.172-.633,17.19-13.555c0,0,.016-10.321.016-10.321.019-12.921-7.687-27.966-17.124-33.432Z" paint-order="stroke fill markers" fill="none" fill-rule="evenodd" stroke="#171a32" stroke-miterlimit="10"/></g><g transform="translate(305.311 91.331)"><path d="M56.914,22.163c0,0-4.924-2.852-4.924-2.852s.004-2.461.004-2.461c.019-12.989-7.727-28.111-17.214-33.605-3.055-1.77-5.928-2.319-8.426-1.836c0,0,0-.133,0-.133.026-18.09-10.753-45.782-23.964-53.435c0,0-10.187-5.901-10.187-5.901-11.876-6.879-21.81,5.984-23.72,20.447-1.449-1.386-2.965-2.581-4.538-3.492-9.486-5.495-17.262.637-17.281,13.626c0,0-.009,5.776-.009,5.776s-3.487-2.021-3.487-2.021c-9.438-5.467-17.173.634-17.191,13.555c0,0-.015,10.321-.015,10.321-.019,12.922,7.687,27.967,17.124,33.433c0,0,113.746,65.888,113.746,65.888c9.436,5.466,17.173-.634,17.191-13.556c0,0,.015-10.322.015-10.322.019-12.921-7.687-27.966-17.124-33.432Z" fill="#c2d1eb" stroke-width="0"/></g><g transform="translate(305.311 91.331)"><path d="M56.914,22.163c0,0-4.924-2.852-4.924-2.852s.004-2.461.004-2.461c.019-12.989-7.727-28.111-17.214-33.605-3.055-1.77-5.928-2.319-8.426-1.836c0,0,0-.133,0-.133.026-18.09-10.753-45.782-23.964-53.435c0,0-10.187-5.901-10.187-5.901-11.876-6.879-21.81,5.984-23.72,20.447-1.449-1.386-2.965-2.581-4.538-3.492-9.486-5.495-17.262.637-17.281,13.626c0,0-.009,5.776-.009,5.776s-3.487-2.021-3.487-2.021c-9.438-5.467-17.173.634-17.191,13.555c0,0-.015,10.321-.015,10.321-.019,12.922,7.687,27.967,17.124,33.433c0,0,113.746,65.888,113.746,65.888c9.436,5.466,17.173-.634,17.191-13.556c0,0,.015-10.322.015-10.322.019-12.921-7.687-27.966-17.124-33.432Z" paint-order="stroke fill markers" fill="none" fill-rule="evenodd" stroke="#124498" stroke-width="0.823" stroke-miterlimit="10"/></g><g transform="translate(305.311 91.331)"><path d="M56.914,22.163c0,0-4.924-2.852-4.924-2.852s.004-2.461.004-2.461c.019-12.989-7.727-28.111-17.214-33.605-3.055-1.77-5.928-2.319-8.426-1.836c0,0,0-.133,0-.133.026-18.09-10.753-45.782-23.964-53.435c0,0-10.187-5.901-10.187-5.901-11.876-6.879-21.81,5.984-23.72,20.447-1.449-1.386-2.965-2.581-4.538-3.492-9.486-5.495-17.262.637-17.281,13.626c0,0-.009,5.776-.009,5.776s-3.487-2.021-3.487-2.021c-9.438-5.467-17.173.634-17.191,13.555c0,0-.015,10.321-.015,10.321-.019,12.922,7.687,27.967,17.124,33.433c0,0,113.746,65.888,113.746,65.888c9.436,5.466,17.173-.634,17.191-13.556c0,0,.015-10.322.015-10.322.019-12.921-7.687-27.966-17.124-33.432Z" fill="#c9d6ed" stroke-width="0"/></g><g transform="translate(305.311 91.331)"><path d="M56.914,22.163c0,0-4.924-2.852-4.924-2.852s.004-2.461.004-2.461c.019-12.989-7.727-28.111-17.214-33.605-3.055-1.77-5.928-2.319-8.426-1.836c0,0,0-.133,0-.133.026-18.09-10.753-45.782-23.964-53.435c0,0-10.187-5.901-10.187-5.901-11.876-6.879-21.81,5.984-23.72,20.447-1.449-1.386-2.965-2.581-4.538-3.492-9.486-5.495-17.262.637-17.281,13.626c0,0-.009,5.776-.009,5.776s-3.487-2.021-3.487-2.021c-9.438-5.467-17.173.634-17.191,13.555c0,0-.015,10.321-.015,10.321-.019,12.922,7.687,27.967,17.124,33.433c0,0,113.746,65.888,113.746,65.888c9.436,5.466,17.173-.634,17.191-13.556c0,0,.015-10.322.015-10.322.019-12.921-7.687-27.966-17.124-33.432Z" paint-order="stroke fill markers" fill="none" fill-rule="evenodd" stroke="#133f8d" stroke-width="0.842" stroke-miterlimit="10"/></g><g transform="translate(305.311 91.331)"><path d="M56.914,22.163c0,0-4.924-2.852-4.924-2.852s.004-2.461.004-2.461c.019-12.989-7.727-28.111-17.214-33.605-3.055-1.77-5.928-2.319-8.426-1.836c0,0,0-.133,0-.133.026-18.09-10.753-45.782-23.964-53.435c0,0-10.187-5.901-10.187-5.901-11.876-6.879-21.81,5.984-23.72,20.447-1.449-1.386-2.965-2.581-4.538-3.492-9.486-5.495-17.262.637-17.281,13.626c0,0-.009,5.776-.009,5.776s-3.487-2.021-3.487-2.021c-9.438-5.467-17.173.634-17.191,13.555c0,0-.015,10.321-.015,10.321-.019,12.922,7.687,27.967,17.124,33.433c0,0,113.746,65.888,113.746,65.888c9.436,5.466,17.173-.634,17.191-13.556c0,0,.015-10.322.015-10.322.019-12.921-7.687-27.966-17.124-33.432Z" fill="#d0dbef" stroke-width="0"/></g><g transform="translate(305.311 91.331)"><path d="M56.914,22.163c0,0-4.924-2.852-4.924-2.852s.004-2.461.004-2.461c.019-12.989-7.727-28.111-17.214-33.605-3.055-1.77-5.928-2.319-8.426-1.836c0,0,0-.133,0-.133.026-18.09-10.753-45.782-23.964-53.435c0,0-10.187-5.901-10.187-5.901-11.876-6.879-21.81,5.984-23.72,20.447-1.449-1.386-2.965-2.581-4.538-3.492-9.486-5.495-17.262.637-17.281,13.626c0,0-.009,5.776-.009,5.776s-3.487-2.021-3.487-2.021c-9.438-5.467-17.173.634-17.191,13.555c0,0-.015,10.321-.015,10.321-.019,12.922,7.687,27.967,17.124,33.433c0,0,113.746,65.888,113.746,65.888c9.436,5.466,17.173-.634,17.191-13.556c0,0,.015-10.322.015-10.322.019-12.921-7.687-27.966-17.124-33.432Z" paint-order="stroke fill markers" fill="none" fill-rule="evenodd" stroke="#133b81" stroke-width="0.862" stroke-miterlimit="10"/></g><g transform="translate(305.311 91.331)"><path d="M56.914,22.163c0,0-4.924-2.852-4.924-2.852s.004-2.461.004-2.461c.019-12.989-7.727-28.111-17.214-33.605-3.055-1.77-5.928-2.319-8.426-1.836c0,0,0-.133,0-.133.026-18.09-10.753-45.782-23.964-53.435c0,0-10.187-5.901-10.187-5.901-11.876-6.879-21.81,5.984-23.72,20.447-1.449-1.386-2.965-2.581-4.538-3.492-9.486-5.495-17.262.637-17.281,13.626c0,0-.009,5.776-.009,5.776s-3.487-2.021-3.487-2.021c-9.438-5.467-17.173.634-17.191,13.555c0,0-.015,10.321-.015,10.321-.019,12.922,7.687,27.967,17.124,33.433c0,0,113.746,65.888,113.746,65.888c9.436,5.466,17.173-.634,17.191-13.556c0,0,.015-10.322.015-10.322.019-12.921-7.687-27.966-17.124-33.432Z" fill="#d6e0f2" stroke-width="0"/></g><g transform="translate(305.311 91.331)"><path d="M56.914,22.163c0,0-4.924-2.852-4.924-2.852s.004-2.461.004-2.461c.019-12.989-7.727-28.111-17.214-33.605-3.055-1.77-5.928-2.319-8.426-1.836c0,0,0-.133,0-.133.026-18.09-10.753-45.782-23.964-53.435c0,0-10.187-5.901-10.187-5.901-11.876-6.879-21.81,5.984-23.72,20.447-1.449-1.386-2.965-2.581-4.538-3.492-9.486-5.495-17.262.637-17.281,13.626c0,0-.009,5.776-.009,5.776s-3.487-2.021-3.487-2.021c-9.438-5.467-17.173.634-17.191,13.555c0,0-.015,10.321-.015,10.321-.019,12.922,7.687,27.967,17.124,33.433c0,0,113.746,65.888,113.746,65.888c9.436,5.466,17.173-.634,17.191-13.556c0,0,.015-10.322.015-10.322.019-12.921-7.687-27.966-17.124-33.432Z" paint-order="stroke fill markers" fill="none" fill-rule="evenodd" stroke="#143676" stroke-width="0.882" stroke-miterlimit="10"/></g><g transform="translate(305.311 91.331)"><path d="M56.914,22.163c0,0-4.924-2.852-4.924-2.852s.004-2.461.004-2.461c.019-12.989-7.727-28.111-17.214-33.605-3.055-1.77-5.928-2.319-8.426-1.836c0,0,0-.133,0-.133.026-18.09-10.753-45.782-23.964-53.435c0,0-10.187-5.901-10.187-5.901-11.876-6.879-21.81,5.984-23.72,20.447-1.449-1.386-2.965-2.581-4.538-3.492-9.486-5.495-17.262.637-17.281,13.626c0,0-.009,5.776-.009,5.776s-3.487-2.021-3.487-2.021c-9.438-5.467-17.173.634-17.191,13.555c0,0-.015,10.321-.015,10.321-.019,12.922,7.687,27.967,17.124,33.433c0,0,113.746,65.888,113.746,65.888c9.436,5.466,17.173-.634,17.191-13.556c0,0,.015-10.322.015-10.322.019-12.921-7.687-27.966-17.124-33.432Z" fill="#dde5f4" stroke-width="0"/></g><g transform="translate(305.311 91.331)"><path d="M56.914,22.163c0,0-4.924-2.852-4.924-2.852s.004-2.461.004-2.461c.019-12.989-7.727-28.111-17.214-33.605-3.055-1.77-5.928-2.319-8.426-1.836c0,0,0-.133,0-.133.026-18.09-10.753-45.782-23.964-53.435c0,0-10.187-5.901-10.187-5.901-11.876-6.879-21.81,5.984-23.72,20.447-1.449-1.386-2.965-2.581-4.538-3.492-9.486-5.495-17.262.637-17.281,13.626c0,0-.009,5.776-.009,5.776s-3.487-2.021-3.487-2.021c-9.438-5.467-17.173.634-17.191,13.555c0,0-.015,10.321-.015,10.321-.019,12.922,7.687,27.967,17.124,33.433c0,0,113.746,65.888,113.746,65.888c9.436,5.466,17.173-.634,17.191-13.556c0,0,.015-10.322.015-10.322.019-12.921-7.687-27.966-17.124-33.432Z" paint-order="stroke fill markers" fill="none" fill-rule="evenodd" stroke="#14316b" stroke-width="0.901" stroke-miterlimit="10"/></g><g transform="translate(305.311 91.331)"><path d="M56.914,22.163c0,0-4.924-2.852-4.924-2.852s.004-2.461.004-2.461c.019-12.989-7.727-28.111-17.214-33.605-3.055-1.77-5.928-2.319-8.426-1.836c0,0,0-.133,0-.133.026-18.09-10.753-45.782-23.964-53.435c0,0-10.187-5.901-10.187-5.901-11.876-6.879-21.81,5.984-23.72,20.447-1.449-1.386-2.965-2.581-4.538-3.492-9.486-5.495-17.262.637-17.281,13.626c0,0-.009,5.776-.009,5.776s-3.487-2.021-3.487-2.021c-9.438-5.467-17.173.634-17.191,13.555c0,0-.015,10.321-.015,10.321-.019,12.922,7.687,27.967,17.124,33.433c0,0,113.746,65.888,113.746,65.888c9.436,5.466,17.173-.634,17.191-13.556c0,0,.015-10.322.015-10.322.019-12.921-7.687-27.966-17.124-33.432Z" fill="#e4ebf6" stroke-width="0"/></g><g transform="translate(305.311 91.331)"><path d="M56.914,22.163c0,0-4.924-2.852-4.924-2.852s.004-2.461.004-2.461c.019-12.989-7.727-28.111-17.214-33.605-3.055-1.77-5.928-2.319-8.426-1.836c0,0,0-.133,0-.133.026-18.09-10.753-45.782-23.964-53.435c0,0-10.187-5.901-10.187-5.901-11.876-6.879-21.81,5.984-23.72,20.447-1.449-1.386-2.965-2.581-4.538-3.492-9.486-5.495-17.262.637-17.281,13.626c0,0-.009,5.776-.009,5.776s-3.487-2.021-3.487-2.021c-9.438-5.467-17.173.634-17.191,13.555c0,0-.015,10.321-.015,10.321-.019,12.922,7.687,27.967,17.124,33.433c0,0,113.746,65.888,113.746,65.888c9.436,5.466,17.173-.634,17.191-13.556c0,0,.015-10.322.015-10.322.019-12.921-7.687-27.966-17.124-33.432Z" paint-order="stroke fill markers" fill="none" fill-rule="evenodd" stroke="#152d5f" stroke-width="0.921" stroke-miterlimit="10"/></g><g transform="translate(305.311 91.331)"><path d="M56.914,22.163c0,0-4.924-2.852-4.924-2.852s.004-2.461.004-2.461c.019-12.989-7.727-28.111-17.214-33.605-3.055-1.77-5.928-2.319-8.426-1.836c0,0,0-.133,0-.133.026-18.09-10.753-45.782-23.964-53.435c0,0-10.187-5.901-10.187-5.901-11.876-6.879-21.81,5.984-23.72,20.447-1.449-1.386-2.965-2.581-4.538-3.492-9.486-5.495-17.262.637-17.281,13.626c0,0-.009,5.776-.009,5.776s-3.487-2.021-3.487-2.021c-9.438-5.467-17.173.634-17.191,13.555c0,0-.015,10.321-.015,10.321-.019,12.922,7.687,27.967,17.124,33.433c0,0,113.746,65.888,113.746,65.888c9.436,5.466,17.173-.634,17.191-13.556c0,0,.015-10.322.015-10.322.019-12.921-7.687-27.966-17.124-33.432Z" fill="#ebf0f8" stroke-width="0"/></g><g transform="translate(305.311 91.331)"><path d="M56.914,22.163c0,0-4.924-2.852-4.924-2.852s.004-2.461.004-2.461c.019-12.989-7.727-28.111-17.214-33.605-3.055-1.77-5.928-2.319-8.426-1.836c0,0,0-.133,0-.133.026-18.09-10.753-45.782-23.964-53.435c0,0-10.187-5.901-10.187-5.901-11.876-6.879-21.81,5.984-23.72,20.447-1.449-1.386-2.965-2.581-4.538-3.492-9.486-5.495-17.262.637-17.281,13.626c0,0-.009,5.776-.009,5.776s-3.487-2.021-3.487-2.021c-9.438-5.467-17.173.634-17.191,13.555c0,0-.015,10.321-.015,10.321-.019,12.922,7.687,27.967,17.124,33.433c0,0,113.746,65.888,113.746,65.888c9.436,5.466,17.173-.634,17.191-13.556c0,0,.015-10.322.015-10.322.019-12.921-7.687-27.966-17.124-33.432Z" paint-order="stroke fill markers" fill="none" fill-rule="evenodd" stroke="#152854" stroke-width="0.941" stroke-miterlimit="10"/></g><g transform="translate(305.311 91.331)"><path d="M56.914,22.163c0,0-4.924-2.852-4.924-2.852s.004-2.461.004-2.461c.019-12.989-7.727-28.111-17.214-33.605-3.055-1.77-5.928-2.319-8.426-1.836c0,0,0-.133,0-.133.026-18.09-10.753-45.782-23.964-53.435c0,0-10.187-5.901-10.187-5.901-11.876-6.879-21.81,5.984-23.72,20.447-1.449-1.386-2.965-2.581-4.538-3.492-9.486-5.495-17.262.637-17.281,13.626c0,0-.009,5.776-.009,5.776s-3.487-2.021-3.487-2.021c-9.438-5.467-17.173.634-17.191,13.555c0,0-.015,10.321-.015,10.321-.019,12.922,7.687,27.967,17.124,33.433c0,0,113.746,65.888,113.746,65.888c9.436,5.466,17.173-.634,17.191-13.556c0,0,.015-10.322.015-10.322.019-12.921-7.687-27.966-17.124-33.432Z" fill="#f1f5fb" stroke-width="0"/></g><g transform="translate(305.311 91.331)"><path d="M56.914,22.163c0,0-4.924-2.852-4.924-2.852s.004-2.461.004-2.461c.019-12.989-7.727-28.111-17.214-33.605-3.055-1.77-5.928-2.319-8.426-1.836c0,0,0-.133,0-.133.026-18.09-10.753-45.782-23.964-53.435c0,0-10.187-5.901-10.187-5.901-11.876-6.879-21.81,5.984-23.72,20.447-1.449-1.386-2.965-2.581-4.538-3.492-9.486-5.495-17.262.637-17.281,13.626c0,0-.009,5.776-.009,5.776s-3.487-2.021-3.487-2.021c-9.438-5.467-17.173.634-17.191,13.555c0,0-.015,10.321-.015,10.321-.019,12.922,7.687,27.967,17.124,33.433c0,0,113.746,65.888,113.746,65.888c9.436,5.466,17.173-.634,17.191-13.556c0,0,.015-10.322.015-10.322.019-12.921-7.687-27.966-17.124-33.432Z" paint-order="stroke fill markers" fill="none" fill-rule="evenodd" stroke="#162349" stroke-width="0.961" stroke-miterlimit="10"/></g><g transform="translate(305.311 91.331)"><path d="M56.914,22.163c0,0-4.924-2.852-4.924-2.852s.004-2.461.004-2.461c.019-12.989-7.727-28.111-17.214-33.605-3.055-1.77-5.928-2.319-8.426-1.836c0,0,0-.133,0-.133.026-18.09-10.753-45.782-23.964-53.435c0,0-10.187-5.901-10.187-5.901-11.876-6.879-21.81,5.984-23.72,20.447-1.449-1.386-2.965-2.581-4.538-3.492-9.486-5.495-17.262.637-17.281,13.626c0,0-.009,5.776-.009,5.776s-3.487-2.021-3.487-2.021c-9.438-5.467-17.173.634-17.191,13.555c0,0-.015,10.321-.015,10.321-.019,12.922,7.687,27.967,17.124,33.433c0,0,113.746,65.888,113.746,65.888c9.436,5.466,17.173-.634,17.191-13.556c0,0,.015-10.322.015-10.322.019-12.921-7.687-27.966-17.124-33.432Z" fill="#f8fafd" stroke-width="0"/></g><g transform="translate(305.311 91.331)"><path d="M56.914,22.163c0,0-4.924-2.852-4.924-2.852s.004-2.461.004-2.461c.019-12.989-7.727-28.111-17.214-33.605-3.055-1.77-5.928-2.319-8.426-1.836c0,0,0-.133,0-.133.026-18.09-10.753-45.782-23.964-53.435c0,0-10.187-5.901-10.187-5.901-11.876-6.879-21.81,5.984-23.72,20.447-1.449-1.386-2.965-2.581-4.538-3.492-9.486-5.495-17.262.637-17.281,13.626c0,0-.009,5.776-.009,5.776s-3.487-2.021-3.487-2.021c-9.438-5.467-17.173.634-17.191,13.555c0,0-.015,10.321-.015,10.321-.019,12.922,7.687,27.967,17.124,33.433c0,0,113.746,65.888,113.746,65.888c9.436,5.466,17.173-.634,17.191-13.556c0,0,.015-10.322.015-10.322.019-12.921-7.687-27.966-17.124-33.432Z" paint-order="stroke fill markers" fill="none" fill-rule="evenodd" stroke="#161f3d" stroke-width="0.98" stroke-miterlimit="10"/></g><g transform="translate(305.311 91.331)"><path d="M56.914,22.163c0,0-4.924-2.852-4.924-2.852s.004-2.461.004-2.461c.019-12.989-7.727-28.111-17.214-33.605-3.055-1.77-5.928-2.319-8.426-1.836c0,0,0-.133,0-.133.026-18.09-10.753-45.782-23.964-53.435c0,0-10.187-5.901-10.187-5.901-11.876-6.879-21.81,5.984-23.72,20.447-1.449-1.386-2.965-2.581-4.538-3.492-9.486-5.495-17.262.637-17.281,13.626c0,0-.009,5.776-.009,5.776s-3.487-2.021-3.487-2.021c-9.438-5.467-17.173.634-17.191,13.555c0,0-.015,10.321-.015,10.321-.019,12.922,7.687,27.967,17.124,33.433c0,0,113.746,65.888,113.746,65.888c9.436,5.466,17.173-.634,17.191-13.556c0,0,.015-10.322.015-10.322.019-12.921-7.687-27.966-17.124-33.432Z" fill="#fff" stroke-width="0"/></g><g transform="translate(305.311 91.331)"><path d="M56.914,22.163c0,0-4.924-2.852-4.924-2.852s.004-2.461.004-2.461c.019-12.989-7.727-28.111-17.214-33.605-3.055-1.77-5.928-2.319-8.426-1.836c0,0,0-.133,0-.133.026-18.09-10.753-45.782-23.964-53.435c0,0-10.187-5.901-10.187-5.901-11.876-6.879-21.81,5.984-23.72,20.447-1.449-1.386-2.965-2.581-4.538-3.492-9.486-5.495-17.262.637-17.281,13.626c0,0-.009,5.776-.009,5.776s-3.487-2.021-3.487-2.021c-9.438-5.467-17.173.634-17.191,13.555c0,0-.015,10.321-.015,10.321-.019,12.922,7.687,27.967,17.124,33.433c0,0,113.746,65.888,113.746,65.888c9.436,5.466,17.173-.634,17.191-13.556c0,0,.015-10.322.015-10.322.019-12.921-7.687-27.966-17.124-33.432Z" paint-order="stroke fill markers" fill="none" fill-rule="evenodd" stroke="#171a32" stroke-miterlimit="10"/></g><g transform="translate(305.311 109.205)"><path d="M-53.37,-41.738c0,0,.025-17.839.025-17.839s-3.487-2.02-3.487-2.02c-9.436-5.467-17.173.633-17.191,13.554c0,0-.015,10.322-.015,10.322-.019,12.921,7.688,27.966,17.124,33.432c0,0,113.746,65.887,113.746,65.887c9.437,5.466,17.173-.633,17.192-13.555c0,0,.014-10.321.014-10.321.019-12.921-7.687-27.966-17.125-33.432c0,0-4.923-2.852-4.923-2.852s-.03,21.155-.03,21.155" fill="#fff" stroke-width="0"/></g><g transform="translate(305.311 109.205)"><path d="M-53.37,-41.738c0,0,.025-17.839.025-17.839s-3.487-2.02-3.487-2.02c-9.436-5.467-17.173.633-17.191,13.554c0,0-.015,10.322-.015,10.322-.019,12.921,7.688,27.966,17.124,33.432c0,0,113.746,65.887,113.746,65.887c9.437,5.466,17.173-.633,17.192-13.555c0,0,.014-10.321.014-10.321.019-12.921-7.687-27.966-17.125-33.432c0,0-4.923-2.852-4.923-2.852s-.03,21.155-.03,21.155" paint-order="stroke fill markers" fill="none" fill-rule="evenodd" stroke="#171a32" stroke-miterlimit="10"/></g><g transform="translate(262.881 37.179)"><path d="M10.747,2.066c.002-1.829-.048-3.899.167-5.526-1.449-1.386-2.966-2.583-4.538-3.494-9.486-5.495-17.263.638-17.281,13.627c0,0-.009,5.776-.009,5.776" fill="#fff" stroke-width="0"/></g><g transform="translate(262.881 37.179)"><path d="M10.747,2.066c.002-1.829-.048-3.899.167-5.526-1.449-1.386-2.966-2.583-4.538-3.494-9.486-5.495-17.263.638-17.281,13.627c0,0-.009,5.776-.009,5.776" paint-order="stroke fill markers" fill="none" fill-rule="evenodd" stroke="#171a32" stroke-miterlimit="10"/></g><g transform="translate(344.494 91.45)"><path d="M12.807,19.193c0,0,.004-2.461.004-2.461.018-12.989-7.728-28.112-17.214-33.607-3.056-1.77-5.928-2.318-8.426-1.835" fill="#fff" stroke-width="0"/></g><g transform="translate(344.494 91.45)"><path d="M12.807,19.193c0,0,.004-2.461.004-2.461.018-12.989-7.728-28.112-17.214-33.607-3.056-1.77-5.928-2.318-8.426-1.835" paint-order="stroke fill markers" fill="none" fill-rule="evenodd" stroke="#171a32" stroke-miterlimit="10"/></g><g transform="translate(302.743 48.527)"><path d="M20.064,42.134c0,0,.004-2.461.004-2.461.013-8.806,3.596-14.444,8.855-15.461c0,0,0-.131,0-.131.026-18.09-10.753-45.782-23.964-53.435c0,0-10.187-5.901-10.187-5.901-11.876-6.879-21.811,5.983-23.721,20.446" fill="#fff" stroke-width="0"/></g><g transform="translate(302.743 48.527)"><path d="M20.064,42.134c0,0,.004-2.461.004-2.461.013-8.806,3.596-14.444,8.855-15.461c0,0,0-.131,0-.131.026-18.09-10.753-45.782-23.964-53.435c0,0-10.187-5.901-10.187-5.901-11.876-6.879-21.811,5.983-23.721,20.446" paint-order="stroke fill markers" fill="none" fill-rule="evenodd" stroke="#171a32" stroke-miterlimit="10"/></g><g transform="translate(273.6 47.073)"><path d="M0.195,-13.354c-.215,1.627-.387,24.879-.39,26.708" fill="#f1f4f3" stroke-width="0"/></g><g transform="translate(273.6 47.073)"><path d="M0.195,-13.354c-.215,1.627-.387,24.879-.39,26.708" paint-order="stroke fill markers" fill="none" fill-rule="evenodd" stroke="#171a32" stroke-miterlimit="10"/></g><g transform="translate(322.808 89.431)"><path d="M-0.002,1.23c0,0,.004-2.46.004-2.46" fill="#f1f4f3" stroke-width="0"/></g><g transform="translate(322.808 89.431)"><path d="M-0.002,1.23c0,0,.004-2.46.004-2.46" paint-order="stroke fill markers" fill="none" fill-rule="evenodd" stroke="#535a77" stroke-width="0.823" stroke-miterlimit="10"/></g><g transform="translate(322.797 97.095)"><path d="M0.009,-6.434c0,0-.018,12.868-.018,12.868" fill="#f1f4f3" stroke-width="0"/></g><g transform="translate(322.797 97.095)"><path d="M0.009,-6.434c0,0-.018,12.868-.018,12.868" paint-order="stroke fill markers" fill="none" fill-rule="evenodd" stroke="#535a77" stroke-width="0.823" stroke-miterlimit="10"/></g><g transform="translate(273.4 64.74)"><path d="M3.151,1.825c-.004,2.382-1.417,3.496-3.156,2.489-1.74-1.008-3.149-3.756-3.146-6.138.004-2.382,1.417-3.497,3.156-2.489c1.741,1.008,3.149,3.756,3.146,6.138Z" fill="#fff" stroke-width="0"/></g><g transform="translate(273.4 64.74)"><path d="M3.151,1.825c-.004,2.382-1.417,3.496-3.156,2.489-1.74-1.008-3.149-3.756-3.146-6.138.004-2.382,1.417-3.497,3.156-2.489c1.741,1.008,3.149,3.756,3.146,6.138Z" paint-order="stroke fill markers" fill="none" fill-rule="evenodd" stroke="#171a32" stroke-miterlimit="10"/></g></g><g transform="translate(410.475 219.647)" mask="url(#eF1BogxLPRy348)"><g transform="translate(5.651 5.651)"><path d="M3.148,0.005c-.002,1.738-1.414,3.146-3.152,3.143-1.74-.002-3.147-1.414-3.144-3.153s1.415-3.146,3.153-3.143c1.739.003,3.146,1.415,3.143,3.153Z" fill="#fff" stroke-width="0"/></g><g transform="translate(5.651 5.651)"><path d="M3.148,0.005c-.002,1.738-1.414,3.146-3.152,3.143-1.74-.002-3.147-1.414-3.144-3.153s1.415-3.146,3.153-3.143c1.739.003,3.146,1.415,3.143,3.153Z" paint-order="stroke fill markers" fill="none" fill-rule="evenodd" stroke="#171a32" stroke-miterlimit="10"/></g><mask id="eF1BogxLPRy348" mask-type="luminance" x="-150%" y="-150%" height="400%" width="400%"><path d="M1.878,9.128c0,0-.188,5.484-.188,5.484s5.797.562,5.797.562s2.25-5.359,2.25-5.359-7.859-.687-7.859-.687Z" fill="#fff" fill-rule="evenodd" stroke="#fff" stroke-width="0"/></mask></g><g transform="translate(265.414 341.725)"><path d="M9.547,0.395c0,0-8.861,5.117-8.861,5.117s-10.233-5.907-10.233-5.907s8.862-5.117,8.862-5.117s10.232,5.907,10.232,5.907Z" fill="#b3b3b3" stroke-width="0"/></g><g transform="translate(214.144 350.463)"><path d="M9.547,0.395c0,0-8.862,5.117-8.862,5.117s-10.232-5.907-10.232-5.907s8.862-5.117,8.862-5.117s10.232,5.907,10.232,5.907Z" fill="#b3b3b3" stroke-width="0"/></g><g transform="translate(226.745 323.181)"><path d="M9.547,0.395c0,0-8.862,5.117-8.862,5.117s-10.232-5.907-10.232-5.907s8.862-5.117,8.862-5.117s10.232,5.907,10.232,5.907Z" fill="#b3b3b3" stroke-width="0"/></g><g transform="translate(267.661 319.564)"><path d="M9.547,0.396c0,0-8.862,5.115-8.862,5.115s-10.232-5.907-10.232-5.907s8.862-5.116,8.862-5.116s10.232,5.908,10.232,5.908Z" fill="#b3b3b3" stroke-width="0"/></g><g transform="translate(309.694 337.059)"><path d="M4.56,-2.633c2.908,1.68,3.225,4.219.706,5.673-2.518,1.454-6.919,1.272-9.827-.407s-3.223-4.219-.704-5.673c2.518-1.454,6.917-1.272,9.825.407Z" fill="#b3b3b3" stroke-width="0"/></g><g transform="translate(301.158 275.71)"><g transform="translate(40.769 29.803)"><path d="M-10.119,-6.951c0,0-17.685,10.21-17.685,10.21-2.585,1.492-6.475,1.664-8.691.385-2.216-1.28-1.917-3.526.668-5.018c0,0,17.682-10.21,17.682-10.21s16.401-9.47,16.401-9.47s40.456,23.359,40.456,23.359-16.733,9.276-16.733,9.276-13.524,7.808-13.524,7.808c-2.585,1.492-6.475,1.665-8.691.386-2.216-1.28-1.917-3.527.668-5.019c0,0,13.522-7.808,13.522-7.808" fill="#c2d1eb" stroke-width="0"/></g><g transform="translate(23.858 31.406)"><path d="M6.792,-8.554c0,0-18.725,10.811-18.725,10.811-2.585,1.492-2.883,3.739-.668,5.018c2.216,1.279,6.109,1.107,8.694-.386c0,0,18.723-10.809,18.723-10.809" fill="#c2d1eb" stroke-width="0"/></g><g transform="translate(31.362 36.34)"><path d="M7.312,-8.854c0,0-19.764,11.41-19.764,11.41-2.585,1.492-2.883,3.739-.668,5.019c2.216,1.279,6.107,1.107,8.692-.386c0,0,19.763-11.41,19.763-11.41" fill="#c2d1eb" stroke-width="0"/></g><g transform="translate(30.545 46.077)"><path d="M16.153,-13.959c0,0-18.723,10.81-18.723,10.81s-18.723,10.809-18.723,10.809c-2.585,1.493-2.884,3.74-.668,5.02c2.216,1.279,6.107,1.106,8.692-.386c0,0,19.764-11.411,19.764-11.411s17.682-10.209,17.682-10.209" fill="#c2d1eb" stroke-width="0"/></g><g transform="translate(16.354 26.473)"><path d="M6.271,-8.254c0,0-17.684,10.21-17.684,10.21-2.585,1.492-2.883,3.739-.668,5.019c2.216,1.279,6.108,1.106,8.693-.386c0,0,17.684-10.209,17.684-10.209" fill="#c2d1eb" stroke-width="0"/></g><g transform="translate(23.858 31.406)"><path d="M6.792,-8.554c0,0-18.725,10.811-18.725,10.811-2.585,1.492-2.883,3.739-.668,5.018c2.216,1.279,6.109,1.107,8.694-.386c0,0,18.723-10.809,18.723-10.809" fill="#c2d1eb" stroke-width="0"/></g><g transform="translate(31.362 36.34)"><path d="M7.312,-8.854c0,0-19.764,11.41-19.764,11.41-2.585,1.492-2.883,3.739-.668,5.019c2.216,1.279,6.107,1.107,8.692-.386c0,0,19.763-11.41,19.763-11.41" fill="#c2d1eb" stroke-width="0"/></g><g transform="translate(30.545 46.077)"><path d="M16.153,-13.959c0,0-18.723,10.81-18.723,10.81s-18.723,10.809-18.723,10.809c-2.585,1.493-2.884,3.74-.668,5.02c2.216,1.279,6.107,1.106,8.692-.386c0,0,19.764-11.411,19.764-11.411s17.682-10.209,17.682-10.209" fill="#c2d1eb" stroke-width="0"/></g><g transform="translate(50.532 43.804)"><path d="M4.191,-7.053c0,0-13.522,7.809-13.522,7.809-2.585,1.492-2.884,3.738-.668,5.017c2.215,1.279,6.107,1.107,8.692-.386c0,0,13.522-7.806,13.522-7.806" fill="#c2d1eb" stroke-width="0"/></g><g transform="translate(40.769 23.111)"><path d="M-10.119,-6.952c0,0-17.685,10.211-17.685,10.211-2.585,1.492-6.475,1.665-8.691.386-2.216-1.28-1.917-3.527.668-5.02c0,0,17.682-10.21,17.682-10.21s16.401-9.468,16.401-9.468s40.456,23.356,40.456,23.356-16.733,9.278-16.733,9.278-13.524,7.806-13.524,7.806c-2.585,1.493-6.475,1.667-8.691.388-2.216-1.28-1.917-3.527.668-5.02c0,0,13.522-7.807,13.522-7.807" fill="#fff" stroke-width="0"/></g><g transform="translate(40.769 23.111)"><path d="M-10.119,-6.952c0,0-17.685,10.211-17.685,10.211-2.585,1.492-6.475,1.665-8.691.386-2.216-1.28-1.917-3.527.668-5.02c0,0,17.682-10.21,17.682-10.21s16.401-9.468,16.401-9.468s40.456,23.356,40.456,23.356-16.733,9.278-16.733,9.278-13.524,7.806-13.524,7.806c-2.585,1.493-6.475,1.667-8.691.388-2.216-1.28-1.917-3.527.668-5.02c0,0,13.522-7.807,13.522-7.807" paint-order="stroke fill markers" fill="none" fill-rule="evenodd" stroke="#fbb03b" stroke-width="0.823" stroke-miterlimit="10"/></g><g transform="translate(23.858 24.714)"><path d="M6.792,-8.554c0,0-18.725,10.811-18.725,10.811-2.585,1.492-2.883,3.739-.668,5.018c2.216,1.279,6.109,1.107,8.694-.386c0,0,18.723-10.809,18.723-10.809" fill="#fff" stroke-width="0"/></g><g transform="translate(23.858 24.714)"><path d="M6.792,-8.554c0,0-18.725,10.811-18.725,10.811-2.585,1.492-2.883,3.739-.668,5.018c2.216,1.279,6.109,1.107,8.694-.386c0,0,18.723-10.809,18.723-10.809" paint-order="stroke fill markers" fill="none" fill-rule="evenodd" stroke="#c78042" stroke-width="0.823" stroke-miterlimit="10"/></g><g transform="translate(31.362 29.647)"><path d="M7.312,-8.854c0,0-19.764,11.41-19.764,11.41-2.585,1.492-2.883,3.739-.668,5.019c2.216,1.279,6.107,1.106,8.692-.386c0,0,19.763-11.41,19.763-11.41" fill="#fff" stroke-width="0"/></g><g transform="translate(31.362 29.647)"><path d="M7.312,-8.854c0,0-19.764,11.41-19.764,11.41-2.585,1.492-2.883,3.739-.668,5.019c2.216,1.279,6.107,1.106,8.692-.386c0,0,19.763-11.41,19.763-11.41" paint-order="stroke fill markers" fill="none" fill-rule="evenodd" stroke="#c78042" stroke-width="0.823" stroke-miterlimit="10"/></g><g transform="translate(30.545 39.385)"><path d="M16.153,-13.959c0,0-18.723,10.811-18.723,10.811s-18.723,10.809-18.723,10.809c-2.585,1.492-2.884,3.739-.668,5.019c2.216,1.279,6.107,1.107,8.692-.386c0,0,19.764-11.41,19.764-11.41s17.682-10.209,17.682-10.209" fill="#fff" stroke-width="0"/></g><g transform="translate(30.545 39.385)"><path d="M16.153,-13.959c0,0-18.723,10.811-18.723,10.811s-18.723,10.809-18.723,10.809c-2.585,1.492-2.884,3.739-.668,5.019c2.216,1.279,6.107,1.107,8.692-.386c0,0,19.764-11.41,19.764-11.41s17.682-10.209,17.682-10.209" paint-order="stroke fill markers" fill="none" fill-rule="evenodd" stroke="#c78042" stroke-width="0.823" stroke-miterlimit="10"/></g><g transform="translate(16.354 19.781)"><path d="M6.271,-8.254c0,0-17.684,10.209-17.684,10.209-2.585,1.493-2.883,3.74-.668,5.02c2.216,1.279,6.108,1.106,8.693-.386c0,0,17.684-10.21,17.684-10.21" fill="#fff" stroke-width="0"/></g><g transform="translate(16.354 19.781)"><path d="M6.271,-8.254c0,0-17.684,10.209-17.684,10.209-2.585,1.493-2.883,3.74-.668,5.02c2.216,1.279,6.108,1.106,8.693-.386c0,0,17.684-10.21,17.684-10.21" paint-order="stroke fill markers" fill="none" fill-rule="evenodd" stroke="#fbb03b" stroke-width="0.823" stroke-miterlimit="10"/></g><g transform="translate(23.858 24.714)"><path d="M6.792,-8.554c0,0-18.725,10.811-18.725,10.811-2.585,1.492-2.883,3.739-.668,5.018c2.216,1.279,6.109,1.107,8.694-.386c0,0,18.723-10.809,18.723-10.809" fill="#fff" stroke-width="0"/></g><g transform="translate(23.858 24.714)"><path d="M6.792,-8.554c0,0-18.725,10.811-18.725,10.811-2.585,1.492-2.883,3.739-.668,5.018c2.216,1.279,6.109,1.107,8.694-.386c0,0,18.723-10.809,18.723-10.809" paint-order="stroke fill markers" fill="none" fill-rule="evenodd" stroke="#fbb03b" stroke-width="0.823" stroke-miterlimit="10"/></g><g transform="translate(31.362 29.647)"><path d="M7.312,-8.854c0,0-19.764,11.41-19.764,11.41-2.585,1.492-2.883,3.739-.668,5.019c2.216,1.279,6.107,1.106,8.692-.386c0,0,19.763-11.41,19.763-11.41" fill="#fff" stroke-width="0"/></g><g transform="translate(31.362 29.647)"><path d="M7.312,-8.854c0,0-19.764,11.41-19.764,11.41-2.585,1.492-2.883,3.739-.668,5.019c2.216,1.279,6.107,1.106,8.692-.386c0,0,19.763-11.41,19.763-11.41" paint-order="stroke fill markers" fill="none" fill-rule="evenodd" stroke="#fbb03b" stroke-width="0.823" stroke-miterlimit="10"/></g><g transform="translate(30.545 39.385)"><path d="M16.153,-13.959c0,0-18.723,10.811-18.723,10.811s-18.723,10.809-18.723,10.809c-2.585,1.492-2.884,3.739-.668,5.019c2.216,1.279,6.107,1.107,8.692-.386c0,0,19.764-11.41,19.764-11.41s17.682-10.209,17.682-10.209" fill="#fff" stroke-width="0"/></g><g transform="translate(30.545 39.385)"><path d="M16.153,-13.959c0,0-18.723,10.811-18.723,10.811s-18.723,10.809-18.723,10.809c-2.585,1.492-2.884,3.739-.668,5.019c2.216,1.279,6.107,1.107,8.692-.386c0,0,19.764-11.41,19.764-11.41s17.682-10.209,17.682-10.209" paint-order="stroke fill markers" fill="none" fill-rule="evenodd" stroke="#fbb03b" stroke-width="0.823" stroke-miterlimit="10"/></g><g transform="translate(50.532 37.111)"><path d="M4.191,-7.053c0,0-13.522,7.808-13.522,7.808-2.585,1.493-2.884,3.739-.668,5.018c2.215,1.279,6.107,1.108,8.692-.386c0,0,13.522-7.806,13.522-7.806" fill="#fff" stroke-width="0"/></g><g transform="translate(50.532 37.111)"><path d="M4.191,-7.053c0,0-13.522,7.808-13.522,7.808-2.585,1.493-2.884,3.739-.668,5.018c2.215,1.279,6.107,1.108,8.692-.386c0,0,13.522-7.806,13.522-7.806" paint-order="stroke fill markers" fill="none" fill-rule="evenodd" stroke="#fbb03b" stroke-width="0.823" stroke-miterlimit="10"/></g></g><g transform="translate(258.599 211.42)"><g transform="translate(9.111 39.157)"><path d="M-4.553,2.628c0,0,9.106-5.256,9.106-5.256" paint-order="stroke fill markers" fill="none" fill-rule="evenodd" stroke="#6ba1c9" stroke-width="0.823" stroke-miterlimit="10"/></g><g transform="translate(9.458 13.036)"><path d="M5.677,2.673c0,0,3.367-1.853,3.367-1.853.129-.071.164-.241.072-.356c0,0-8.824-11.183-8.824-11.183-.113-.143-.338-.112-.408.055c0,0-9.092,21.526-9.092,21.526s3.614-1.989,3.614-1.989" fill="#6ba1c9" stroke-width="0"/></g><g transform="translate(9.5 26.876)"><path d="M5.635,-11.173c0,0,0,16.125,0,16.125c0,.05-.027.096-.07.12c0,0-11,6.051-11,6.051-.09.05-.2-.015-.2-.118c0,0,0-15.977,0-15.977" fill="#6ba1c9" stroke-width="0"/></g><g transform="translate(15.516 13.378)"><path d="M5.669,2.689c0,0,3.416-1.879,3.416-1.879.104-.058.132-.195.058-.288c0,0-8.907-11.285-8.907-11.285-.09-.115-.273-.091-.33.044c0,0-9.122,21.598-9.122,21.598s3.614-1.99,3.614-1.99" fill="#b9d7f1" stroke-width="0"/></g><g transform="translate(15.516 13.378)"><path d="M5.669,2.689c0,0,3.416-1.879,3.416-1.879.104-.058.132-.195.058-.288c0,0-8.907-11.285-8.907-11.285-.09-.115-.273-.091-.33.044c0,0-9.122,21.598-9.122,21.598s3.614-1.99,3.614-1.99" paint-order="stroke fill markers" fill="none" fill-rule="evenodd" stroke="#171a32" stroke-miterlimit="10"/></g><g transform="translate(15.55 27.223)"><path d="M5.635,-11.16c0,0,0,16.092,0,16.092c0,.071-.038.135-.1.169c0,0-10.884,5.988-10.884,5.988-.128.071-.286-.022-.286-.169c0,0,0-15.879,0-15.879" fill="#b9d7f1" stroke-width="0"/></g><g transform="translate(15.55 27.223)"><path d="M5.635,-11.16c0,0,0,16.092,0,16.092c0,.071-.038.135-.1.169c0,0-10.884,5.988-10.884,5.988-.128.071-.286-.022-.286-.169c0,0,0-15.879,0-15.879" paint-order="stroke fill markers" fill="none" fill-rule="evenodd" stroke="#171a32" stroke-miterlimit="10"/></g><g transform="translate(16.2 39.157)"><path d="M-4.553,2.628c0,0,9.106-5.256,9.106-5.256" paint-order="stroke fill markers" fill="none" fill-rule="evenodd" stroke="#171a32" stroke-linecap="round" stroke-miterlimit="10"/></g></g></svg>
